<svg xmlns="http://www.w3.org/2000/svg" xmlns:xlink="http://www.w3.org/1999/xlink" width="395.323" height="547.513" viewBox="0 0 395.323 547.513">
  <defs>
    <linearGradient id="linear-gradient" x1="82.082" y1="0.5" x2="82.421" y2="0.5" gradientUnits="objectBoundingBox">
      <stop offset="0.007" stop-color="#989898"/>
      <stop offset="0.007" stop-color="#999"/>
      <stop offset="0.211" stop-color="#999"/>
      <stop offset="0.212" stop-color="#a2a2a2"/>
      <stop offset="0.975" stop-color="#a2a2a2"/>
      <stop offset="0.975" stop-color="#9d9d9d"/>
    </linearGradient>
    <linearGradient id="linear-gradient-2" x1="47.491" y1="1.016" x2="48.389" y2="-0.029" gradientUnits="objectBoundingBox">
      <stop offset="0.005" stop-color="#918881"/>
      <stop offset="0.018" stop-color="#938a83"/>
      <stop offset="0.023" stop-color="#98908a"/>
      <stop offset="0.027" stop-color="#a39b95"/>
      <stop offset="0.03" stop-color="#b1aba6"/>
      <stop offset="0.032" stop-color="#c1bdb9"/>
      <stop offset="0.435" stop-color="#c1bdb9"/>
      <stop offset="0.435" stop-color="#c8c4c0"/>
      <stop offset="0.436" stop-color="#dcd9d6"/>
      <stop offset="0.437" stop-color="#ece9e7"/>
      <stop offset="0.438" stop-color="#f7f5f2"/>
      <stop offset="0.44" stop-color="#fdfbf9"/>
      <stop offset="0.445" stop-color="#fffdfb"/>
      <stop offset="0.471" stop-color="#fffdfb"/>
      <stop offset="0.479" stop-color="#e5e3e1"/>
      <stop offset="0.976" stop-color="#e5e3e1"/>
      <stop offset="0.984" stop-color="#fafafa"/>
    </linearGradient>
    <linearGradient id="linear-gradient-3" x1="47.31" y1="0.964" x2="48.208" y2="-0.101" gradientUnits="objectBoundingBox">
      <stop offset="0" stop-color="#7472bd" stop-opacity="0"/>
      <stop offset="0.761" stop-color="#4fb8d1" stop-opacity="0.761"/>
      <stop offset="1" stop-color="#43cfd7"/>
    </linearGradient>
    <linearGradient id="linear-gradient-4" x1="0.396" y1="0.433" x2="0.843" y2="0.72" gradientUnits="objectBoundingBox">
      <stop offset="0.198" stop-color="#b9b7f5"/>
      <stop offset="0.316" stop-color="#9f9cdf"/>
      <stop offset="0.483" stop-color="#7e7bc5"/>
      <stop offset="0.576" stop-color="#726fbb"/>
      <stop offset="0.652" stop-color="#6d79be"/>
      <stop offset="0.784" stop-color="#5f95c6"/>
      <stop offset="0.954" stop-color="#4ac2d3"/>
      <stop offset="1" stop-color="#43cfd7"/>
    </linearGradient>
    <linearGradient id="linear-gradient-5" x1="0.728" y1="0.881" x2="0.437" y2="0.395" xlink:href="#linear-gradient-4"/>
    <clipPath id="clip-path">
      <path id="Path_330" data-name="Path 330" d="M216.991,201.786l.18-61L164.1,110.16l-.16,61Z" transform="translate(-163.94 -110.16)"/>
    </clipPath>
    <clipPath id="clip-path-2">
      <path id="Path_335" data-name="Path 335" d="M180.22,213.507l.2-68.485-59.6-34.4-.2,68.485Z" transform="translate(-120.62 -110.62)"/>
    </clipPath>
    <clipPath id="clip-path-3">
      <path id="Path_339" data-name="Path 339" d="M204.476,231.422l.14-50.635L160.57,155.35l-.16,50.635Z" transform="translate(-160.41 -155.35)"/>
    </clipPath>
    <linearGradient id="linear-gradient-6" x1="0" y1="0.5" x2="1" y2="0.5" xlink:href="#linear-gradient-4"/>
    <clipPath id="clip-path-4">
      <path id="Path_359" data-name="Path 359" d="M247.68,221.943l.16-54.468L200.46,140.12l-.16,54.449Z" transform="translate(-200.3 -140.12)"/>
    </clipPath>
    <linearGradient id="linear-gradient-7" x1="41.176" y1="7.713" x2="40.598" y2="8.462" gradientUnits="objectBoundingBox">
      <stop offset="0.313" stop-color="#e26622"/>
      <stop offset="0.848" stop-color="#f5f78e"/>
    </linearGradient>
    <linearGradient id="linear-gradient-8" x1="29.748" y1="6.051" x2="30.033" y2="7.677" gradientUnits="objectBoundingBox">
      <stop offset="0.011" stop-color="#f46622"/>
      <stop offset="0.149" stop-color="#f5f78e"/>
    </linearGradient>
    <linearGradient id="linear-gradient-9" x1="22.444" y1="5.879" x2="23.555" y2="5.879" gradientUnits="objectBoundingBox">
      <stop offset="0" stop-color="#f8993f"/>
      <stop offset="0.17" stop-color="#f7a94d"/>
      <stop offset="0.504" stop-color="#f6d471"/>
      <stop offset="0.747" stop-color="#f5f78e"/>
    </linearGradient>
    <linearGradient id="linear-gradient-10" x1="22.256" y1="4.011" x2="21.678" y2="4.76" xlink:href="#linear-gradient-7"/>
    <linearGradient id="linear-gradient-11" x1="16.022" y1="3.125" x2="16.308" y2="4.75" xlink:href="#linear-gradient-8"/>
    <linearGradient id="linear-gradient-12" x1="11.768" y1="3.012" x2="12.879" y2="3.012" xlink:href="#linear-gradient-9"/>
    <linearGradient id="linear-gradient-13" x1="18.682" y1="0.784" x2="19.628" y2="0.784" gradientUnits="objectBoundingBox">
      <stop offset="0" stop-color="#fff"/>
      <stop offset="0.73" stop-color="#8a7bff"/>
    </linearGradient>
    <linearGradient id="linear-gradient-14" x1="19.607" y1="0.088" x2="20.388" y2="1.027" xlink:href="#linear-gradient-13"/>
    <linearGradient id="linear-gradient-15" x1="18.569" y1="0.855" x2="19.515" y2="0.855" gradientUnits="objectBoundingBox">
      <stop offset="0" stop-color="#fff"/>
      <stop offset="0.998" stop-color="#339f7e"/>
    </linearGradient>
    <linearGradient id="linear-gradient-16" x1="19.484" y1="0.162" x2="20.265" y2="1.1" gradientUnits="objectBoundingBox">
      <stop offset="0" stop-color="#fff"/>
      <stop offset="1" stop-color="#3be1b1"/>
    </linearGradient>
  </defs>
  <g id="it_cover" transform="translate(-64.576)">
    <g id="Group_203" data-name="Group 203" transform="translate(0 342.306)" opacity="0.5">
      <ellipse id="Ellipse_2" data-name="Ellipse 2" cx="82.282" cy="194.094" rx="82.282" ry="194.094" transform="matrix(0.039, -0.999, 0.999, 0.039, 65.095, 189.665)" fill="#eaeaea" stroke="#fff" stroke-miterlimit="10" stroke-width="1"/>
      <ellipse id="Ellipse_3" data-name="Ellipse 3" cx="55.107" cy="129.982" rx="55.107" ry="129.982" transform="matrix(0.039, -0.999, 0.999, 0.039, 129.745, 160.354)" fill="rgba(161,46,46,0)" stroke="#fff" stroke-miterlimit="10" stroke-width="1"/>
      <ellipse id="Ellipse_4" data-name="Ellipse 4" cx="28.672" cy="67.626" rx="28.672" ry="67.626" transform="matrix(0.039, -0.999, 0.999, 0.039, 192.611, 131.714)" fill="rgba(161,46,46,0)" stroke="#fff" stroke-miterlimit="10" stroke-width="1"/>
      <ellipse id="Ellipse_5" data-name="Ellipse 5" cx="11.201" cy="26.436" rx="11.201" ry="26.436" transform="matrix(0.039, -0.999, 0.999, 0.039, 233.98, 111.234)" fill="rgba(161,46,46,0)" stroke="#fff" stroke-miterlimit="10" stroke-width="1"/>
    </g>
    <g id="XMLID_2152_" transform="translate(156.974 84.797)">
      <g id="XMLID_2001_" transform="translate(67.313 267.172)">
        <path id="XMLID_2122_" d="M261.056,353.561l-80.465-46.442a6.539,6.539,0,0,1,.579-11.621l22.243-10.083L246.74,258.84l84.238,48.638L296.916,339.4l-17.91,13.158A16.39,16.39,0,0,1,261.056,353.561Z" transform="translate(-177.323 -179.394)" fill="url(#linear-gradient)"/>
        <path id="XMLID_2119_" d="M294.588,267.688,210.33,219.05l3.514,79.446L298.1,347.135Z" transform="translate(-144.427 -219.05)" fill="#989898"/>
        <path id="XMLID_2085_" d="M261.056,352.081l-80.465-46.442a6.539,6.539,0,0,1,.579-11.62l22.243-10.083,39.813-26.775L327.464,305.8,296.9,337.924l-17.91,13.158A16.355,16.355,0,0,1,261.056,352.081Z" transform="translate(-177.323 -181.068)" fill="#eeecea"/>
        <path id="XMLID_2018_" d="M293.408,268.778,209.17,220.14l2.316,73.916,84.258,48.658Z" transform="translate(-145.583 -217.964)" fill="#9c9f93"/>
        <path id="XMLID_2009_" d="M283.893,337.924l-93.5-53.989L230.2,257.16l84.258,48.658Z" transform="translate(-164.3 -181.068)" fill="#d4d4d4"/>
      </g>
      <g id="XMLID_1910_">
        <g id="XMLID_1904_">
          <path id="XMLID_1908_" d="M147.16,93.407l12.818-6.729.02.02a13.486,13.486,0,0,1,12.9.379L395.163,215.4a34.237,34.237,0,0,1,17.131,29.65V460.769a13.526,13.526,0,0,1-7.627,12.219l.02.02L391.649,479.8l-7.288-11.521-214.8-124.012a34.218,34.218,0,0,1-17.111-29.65V101.693Z" transform="translate(-140.072 -85.24)" fill="url(#linear-gradient-2)"/>
          <path id="XMLID_1907_" d="M410.837,461.768V246.05a34.237,34.237,0,0,0-17.131-29.65L171.459,88.076a13.54,13.54,0,0,0-12.9-.379l-.02-.02-11.261,5.91-.12-.18,12.818-6.729.02.02a13.486,13.486,0,0,1,12.9.379L395.163,215.4a34.237,34.237,0,0,1,17.131,29.65V460.769a13.452,13.452,0,0,1-6.649,11.66A13.379,13.379,0,0,0,410.837,461.768Z" transform="translate(-140.072 -85.24)" fill="url(#linear-gradient-3)"/>
          <path id="XMLID_2373_" d="M143.61,102.16v215.7a34.171,34.171,0,0,0,17.131,29.65l40.472,23.361,74.235,42.868,38.675,22.323,68.864,39.773a13.7,13.7,0,0,0,20.506-11.82v-215.7a34.255,34.255,0,0,0-17.131-29.65l-33.624-19.427-84.019-48.5L230.045,128.4,164.1,90.319a13.369,13.369,0,0,0-7.787-1.8A13.632,13.632,0,0,0,143.61,102.16Z" transform="translate(-143.61 -82.013)" fill="url(#linear-gradient-4)"/>
          <path id="XMLID_4195_" d="M143.61,102.144v196.37l50.775,29.311,74.2,42.868L307.275,393l84.039,48.518v.04l12.16,7.008V248.3a34.275,34.275,0,0,0-17.111-29.67l-33.643-19.407-84-48.479-38.7-22.342L164.1,90.3a10.649,10.649,0,0,0-1.677-.8c-.559-.2-1.118-.419-1.677-.559a9.317,9.317,0,0,0-1.717-.339,11.24,11.24,0,0,0-2.715-.06A13.58,13.58,0,0,0,143.61,102.144Z" transform="translate(-143.61 -81.997)" fill="#191241"/>
          <path id="XMLID_4165_" d="M206.28,119.67l38.535,242.253,84.039,48.518-1.817-11.421H327L290.259,168.148Z" transform="translate(-81.15 -50.925)" fill="#fff" opacity="0.15"/>
          <path id="XMLID_3909_" d="M149.98,88.536l38.056,239.3,74.2,42.868-1.817-11.461L223.676,128.409l-65.929-38.1a10.645,10.645,0,0,0-1.677-.8c-.559-.2-1.118-.419-1.677-.559a9.317,9.317,0,0,0-1.717-.339A10.141,10.141,0,0,0,149.98,88.536Z" transform="translate(-137.261 -82.006)" fill="#fff" opacity="0.15"/>
          <path id="XMLID_2585_" d="M147.78,93.18V288.252l40.632,23.441,74.2,42.888L301.3,376.9l84.019,48.518,5.67,3.275V233.6l-39.853-23-84.019-48.518-38.675-22.322-74.2-42.848Z" transform="translate(-139.454 -77.326)" fill="url(#linear-gradient-5)"/>
          <path id="XMLID_2408_" d="M208.98,128.52l34.2,214.819L327.2,391.857,293,177.038Z" transform="translate(-78.459 -42.104)" fill="#413d3f"/>
          <path id="XMLID_2407_" d="M152.45,95.88l34.163,214.779,74.215,42.868-34.183-214.8Z" transform="translate(-134.8 -74.635)" fill="#413d3f"/>
          <path id="XMLID_2017_" d="M149.916,94.418V286.855L391.011,426.041V428.7L147.78,288.252V93.18Z" transform="translate(-139.454 -77.326)" fill="#484949"/>
        </g>
        <g id="XMLID_1906_" transform="translate(266.572 221.708)">
          <path id="XMLID_1905_" d="M277.12,197.678l2.436-1.4v77.53l-2.436,1.418Z" transform="translate(-277.12 -196.28)" fill="#191241"/>
          <path id="XMLID_1909_" d="M277.12,239.348l2.436-1.4v16.632l-2.436,1.4Z" transform="translate(-277.12 -154.75)" fill="#191241"/>
        </g>
      </g>
    </g>
    <g id="Group_220" data-name="Group 220" transform="translate(111.071 73.187)">
      <g id="Group_206" data-name="Group 206" transform="translate(86.495 61.367)">
        <g id="Group_205" data-name="Group 205">
          <g id="Group_204" data-name="Group 204" clip-path="url(#clip-path)">
            <path id="Path_327" data-name="Path 327" d="M192.846,120.386c11.82,6.828,21.364,23.361,21.324,36.958-.04,10.722-11.68,17.311-16.572,19.607,3.853-2.236,6.23-6.988,6.249-13.737.04-13.577-9.5-30.109-21.324-36.958-6.17-3.574-11.74-3.774-15.654-1.218.739-.559,14.476-11.281,25.976-4.652" transform="translate(-161.02 -102.117)" fill="#87264f"/>
            <path id="Path_328" data-name="Path 328" d="M185.364,141.177c1.438-2.176,4.233-2.636,7.447-.779,4.652,2.7,8.426,9.2,8.406,14.576-.02,9.863-13.278,9.125-15.913,8.825-2.5-2.536-15.813-19.048-15.793-27.114.02-5.371,3.794-7.527,8.466-4.832a18.3,18.3,0,0,1,7.388,9.324m.06-17.451c-6.17-3.574-11.74-3.774-15.654-1.218-3.574,2.336-5.77,6.968-5.79,13.457-.04,13.577,9.5,30.109,21.324,36.938,5.95,3.434,11.321,3.754,15.214,1.5,3.854-2.236,6.23-6.988,6.25-13.737.02-13.577-9.524-30.109-21.344-36.938" transform="translate(-163.9 -99.567)" fill="#ee4a7c"/>
            <path id="Path_329" data-name="Path 329" d="M175.216,126.9a18.325,18.325,0,0,1,7.388,9.344c1.438-2.176,4.233-2.636,7.447-.779,4.652,2.7,8.426,9.2,8.406,14.576-.02,9.863-13.278,9.125-15.913,8.825-2.5-2.536-15.813-19.048-15.793-27.114.02-5.371,3.814-7.547,8.466-4.852" transform="translate(-161.139 -94.632)" fill="#fff"/>
          </g>
        </g>
      </g>
      <g id="Group_209" data-name="Group 209" transform="translate(0 62.285)">
        <g id="Group_208" data-name="Group 208">
          <g id="Group_207" data-name="Group 207" clip-path="url(#clip-path-2)">
            <path id="Path_331" data-name="Path 331" d="M153.1,122.125c13.278,7.667,24,26.236,23.96,41.49-.04,12.04-13.118,19.427-18.609,22,4.313-2.5,7.008-7.847,7.028-15.434.04-15.254-10.662-33.823-23.94-41.49-6.948-4.013-13.238-4.233-17.63-1.338h0s15.913-12.9,29.191-5.231" transform="translate(-117.341 -101.579)" fill="#5a69c3"/>
            <path id="Path_332" data-name="Path 332" d="M160.643,175.35l-8.905-5.151.04-16.273,8.905,5.151-.04,16.273m-11.82-9.3-.639-.379c-.719-.419-1.657.359-2.636-.2l-14-8.106c-2.8-1.617-3.235-5.511-1.4-4.792l-.08-.459c-1.757-1.238-2.835-5.091-.579-4.453l-.08-.439c-1.7-1.178-2.955-5.052-.579-4.453l-.08-.439c-2.236-1.677-2.676-5.87-.3-4.512l9.724,5.611c-.379-1.937-1.058-7.747-1.058-7.747a12.136,12.136,0,0,1,1.717-4.992,2.923,2.923,0,0,1,1.258.4,3.574,3.574,0,0,1,1.378,1.438s-.1,4.173-.1,5.131c0,.978,4.153,11.121,5.171,12.739.519.819,1.478,2.116,2.3,3.155l-.02,12.5m-4.053-40.192c-6.948-4.013-13.238-4.233-17.63-1.338-3.993,2.636-6.449,7.827-6.469,15.075-.04,15.254,10.682,33.823,23.96,41.49,6.669,3.854,12.7,4.213,17.071,1.677,4.313-2.5,7.008-7.847,7.028-15.434.02-15.254-10.682-33.823-23.96-41.47" transform="translate(-120.57 -98.719)" fill="#8294da"/>
            <path id="Path_333" data-name="Path 333" d="M137.025,127.019a3.574,3.574,0,0,1,1.378,1.438s-.1,4.173-.1,5.131c0,.978,4.153,11.121,5.171,12.739.519.819,1.478,2.116,2.3,3.155l-.04,12.5-.639-.379c-.719-.419-1.657.359-2.636-.2l-14-8.106c-2.8-1.617-3.235-5.511-1.4-4.792l-.08-.459c-1.757-1.238-2.835-5.091-.579-4.452l-.08-.439c-1.7-1.178-2.955-5.052-.579-4.453l-.08-.439c-2.236-1.677-2.676-5.87-.3-4.512l9.724,5.611c-.379-1.937-1.058-7.747-1.058-7.747a12.136,12.136,0,0,1,1.717-4.992,3.106,3.106,0,0,1,1.278.4" transform="translate(-117.477 -94.674)" fill="#fff"/>
            <path id="Path_334" data-name="Path 334" d="M136.27,138.28l8.905,5.151-.04,16.253-8.905-5.131.04-16.273" transform="translate(-105.062 -83.053)" fill="#fff"/>
          </g>
        </g>
      </g>
      <g id="Group_212" data-name="Group 212" transform="translate(79.447 151.595)">
        <g id="Group_211" data-name="Group 211">
          <g id="Group_210" data-name="Group 210" clip-path="url(#clip-path-3)">
            <path id="Path_336" data-name="Path 336" d="M184.384,163.842c9.8,5.67,17.75,19.407,17.71,30.688-.02,8.925-9.724,14.376-13.777,16.273,3.195-1.837,5.191-5.79,5.211-11.421.04-11.281-7.907-25-17.71-30.668-5.091-2.935-9.7-3.135-12.938-1.058,1.078-.819,12.18-9.185,21.5-3.814" transform="translate(-157.948 -148.668)" fill="#ffab33"/>
            <path id="Path_337" data-name="Path 337" d="M186.886,200.939l-6.329-3.654L178.48,199.6a.266.266,0,0,1-.319.02,1.012,1.012,0,0,1-.319-.379l-2.057-4.712-6.329-3.654A3.2,3.2,0,0,1,168,188.321l.04-11.521c0-.938.659-1.338,1.478-.859L186.946,186a3.22,3.22,0,0,1,1.458,2.556l-.04,11.521c0,.958-.659,1.338-1.478.859m-8.625-34.322c-5.091-2.935-9.7-3.135-12.938-1.058-3.015,1.917-4.852,5.79-4.872,11.2-.04,11.281,7.887,25,17.69,30.668,4.932,2.835,9.384,3.115,12.619,1.258,3.195-1.837,5.191-5.79,5.211-11.421.02-11.261-7.907-25-17.71-30.648" transform="translate(-160.37 -146.551)" fill="#ffd87b"/>
            <path id="Path_338" data-name="Path 338" d="M165.738,170.182l17.431,10.063a3.22,3.22,0,0,1,1.458,2.556l-.04,11.521c0,.938-.679,1.318-1.477.859l-6.329-3.654-2.076,2.316a.266.266,0,0,1-.32.02,1.013,1.013,0,0,1-.319-.379l-2.057-4.712-6.329-3.654a3.2,3.2,0,0,1-1.458-2.556l.04-11.521c0-.938.659-1.338,1.478-.859" transform="translate(-156.613 -140.771)" fill="#fff"/>
          </g>
        </g>
      </g>
      <g id="Group_216" data-name="Group 216" transform="translate(157.016)">
        <g id="Group_215" data-name="Group 215">
          <g id="Group_214" data-name="Group 214">
            <path id="Path_340" data-name="Path 340" d="M282.18,125.28l-.12,40.232c0,1.737-.779,2.835-1.957,3.055l.4-.12-4.492-11.8.06-23.3,6.09-2.3.02-5.77" transform="translate(-122.767 -33.724)" fill="#4c4842"/>
            <path id="Path_341" data-name="Path 341" d="M276.359,140.99l4.492,11.8-.4.12-4.792,1.517a3.633,3.633,0,0,0,.659-2.276l.04-11.161" transform="translate(-123.116 -18.067)" fill="#4c4842"/>
            <path id="Path_342" data-name="Path 342" d="M353.343,163.414l-144.457-83.4a3.383,3.383,0,0,0-2.616-.5l-.02-.02-.319.12-5.71,2.156a3.49,3.49,0,0,1,2.576.519l144.018,83.14.439.26a7.994,7.994,0,0,1,2.356,2.156,9.448,9.448,0,0,1,2.017,5.411l-.02,5.77,6.09-2.3.02-5.77A9.671,9.671,0,0,0,353.343,163.414Z" transform="translate(-198.303 -79.425)" fill="#191241"/>
            <path id="Path_343" data-name="Path 343" d="M321.694,188.905,201.955,119.782l.02-4.992,119.739,69.124-.02,4.992m.02-7.308L201.975,112.474l.02-4.992,119.739,69.124-.02,4.992m.02-7.308L202,105.166l.02-4.992L321.754,169.3l-.02,4.992m.02-7.308L202.015,97.858l.02-4.992,119.739,69.124-.02,4.992m23.4,35.5-19.986-11.541.08-26.975,19.986,11.541-.08,26.975m7.428-34.782-.02,5.77L199.36,85.02l-.1,34.462a9.623,9.623,0,0,0,4.373,7.567l144.457,83.4c1.577.9,2.955.759,3.734-.24a3.633,3.633,0,0,0,.659-2.276l.04-11.161.06-23.3V167.7" transform="translate(-199.26 -73.849)" fill="#fff"/>
            <path id="Path_344" data-name="Path 344" d="M203.723,81.17a3.4,3.4,0,0,0-2.576-.519c-1.1.28-1.817,1.358-1.817,3.035l-.02,5.77,153.2,88.451.02-5.77a9.447,9.447,0,0,0-2.017-5.411,8.246,8.246,0,0,0-2.356-2.156l-.439-.26-144-83.14" transform="translate(-199.21 -78.285)" fill="url(#linear-gradient-6)"/>
            <path id="Path_345" data-name="Path 345" d="M212.7,87.5a6.445,6.445,0,0,1,2.915,5.052c0,1.837-1.318,2.6-2.935,1.657a6.358,6.358,0,0,1-2.9-5.032c0-1.857,1.318-2.616,2.915-1.677" transform="translate(-188.775 -71.778)" fill="#ee4a7c"/>
            <path id="Path_346" data-name="Path 346" d="M208.125,84.857a6.445,6.445,0,0,1,2.915,5.051c0,1.837-1.318,2.6-2.935,1.657a6.358,6.358,0,0,1-2.9-5.032c0-1.857,1.318-2.6,2.915-1.677" transform="translate(-193.33 -74.404)" fill="#ffcb33"/>
            <path id="Path_347" data-name="Path 347" d="M203.555,82.217a6.445,6.445,0,0,1,2.915,5.051c0,1.837-1.318,2.6-2.935,1.657a6.358,6.358,0,0,1-2.9-5.032c0-1.857,1.318-2.6,2.915-1.677" transform="translate(-197.885 -77.036)" fill="#58ec58"/>
            <path id="Path_348" data-name="Path 348" d="M262.4,124.56,282.366,136.1l-.06,26.975L262.32,151.535l.08-26.975" transform="translate(-136.411 -34.442)" fill="#8294da"/>
            <path id="Path_349" data-name="Path 349" d="M200.65,92.6l119.739,69.144-.02,4.992L200.63,97.612l.02-5.012" transform="translate(-197.895 -66.294)" fill="#abb9e9"/>
            <path id="Path_350" data-name="Path 350" d="M200.64,96.27l119.739,69.124-.02,4.992L200.62,101.262l.02-4.992" transform="translate(-197.904 -62.637)" fill="#abb9e9"/>
            <path id="Path_351" data-name="Path 351" d="M200.63,99.93l119.739,69.144-.02,4.972L200.61,104.922l.02-4.992" transform="translate(-197.914 -58.989)" fill="#abb9e9"/>
            <path id="Path_352" data-name="Path 352" d="M200.66,88.94,320.4,158.064l-.02,5.012L200.64,93.932l.02-4.992" transform="translate(-197.885 -69.942)" fill="#abb9e9"/>
            <g id="Group_213" data-name="Group 213" transform="translate(129.423 98.325)">
              <path id="Path_353" data-name="Path 353" d="M274.143,149.974l-6.549-3.774v-.439a3.814,3.814,0,0,0,1.058.479,1.007,1.007,0,0,0,.639.02.529.529,0,0,0,.319-.3,1.171,1.171,0,0,0,.08-.459V132.8l-1.7-.978c-.439-.26-.819-.459-1.178-.639a1.775,1.775,0,0,0-.938-.22,1.011,1.011,0,0,0-.739.479,3.919,3.919,0,0,0-.5,1.458l-.559-.319.16-3.913,13.338,7.687.12,4.073-.559-.319a8.468,8.468,0,0,0-.5-2.017,4.544,4.544,0,0,0-.719-1.318,3.931,3.931,0,0,0-.938-.879c-.359-.24-.759-.479-1.2-.739l-1.677-.958v12.719a2.5,2.5,0,0,0,.379,1.218,4.354,4.354,0,0,0,1.657,1.418Z" transform="translate(-264.08 -128.67)" fill="#fff"/>
            </g>
          </g>
        </g>
      </g>
      <g id="Group_219" data-name="Group 219" transform="translate(159.093 121.186)">
        <g id="Group_218" data-name="Group 218">
          <g id="Group_217" data-name="Group 217" clip-path="url(#clip-path-4)">
            <path id="Path_354" data-name="Path 354" d="M243.467,217.8l.04-15.414,4.233-.459-.04,13.757-4.233,2.116M206.31,141.81l-5.87,1.5,43.167,24.918-.14,49.6L200.3,192.9l43.167,24.918,4.253-2.116.14-49.9-41.55-24" transform="translate(-200.3 -138.436)" fill="#a5deff"/>
            <path id="Path_355" data-name="Path 355" d="M226.193,171.93l-.04,13.757-4.233,2.1.04-15.394,4.233-.459" transform="translate(-178.753 -108.417)" fill="#58ec58"/>
            <path id="Path_356" data-name="Path 356" d="M226.206,178.48a9.367,9.367,0,0,1-4.233-7.308c0-2.676,1.917-3.774,4.253-2.416a9.262,9.262,0,0,1,4.213,7.308c0,2.675-1.9,3.774-4.233,2.416M200.45,142.56l-.08,26.256,8.486-3.774,13.937,23.62,10.243-3.594L243.5,201.661l-.04,15.414L200.29,192.157l43.167,24.918.14-49.6L200.45,142.56" transform="translate(-200.31 -137.688)" fill="#fff"/>
            <path id="Path_357" data-name="Path 357" d="M208.846,153.81l13.937,23.62,10.263-3.594,10.462,16.612-.04,15.394L200.3,180.924l.06-23.341,8.486-3.774" transform="translate(-200.3 -126.476)" fill="#98ff98"/>
            <path id="Path_358" data-name="Path 358" d="M215.413,155.973a9.262,9.262,0,0,1,4.213,7.308c0,2.7-1.917,3.774-4.253,2.436a9.367,9.367,0,0,1-4.233-7.308c.04-2.715,1.937-3.794,4.273-2.436" transform="translate(-189.496 -124.905)" fill="#ffd87b"/>
          </g>
        </g>
      </g>
    </g>
    <g id="Group_221" data-name="Group 221" transform="translate(337.371 242.299)">
      <path id="Path_360" data-name="Path 360" d="M264.023,203.072l-21.144-12.2c-3.674-2.116-6.649-6.828-6.649-10.5v-12.4a3.69,3.69,0,0,1,1.617-3.414c1.218-.719,3.035-.559,5.052.6l21.144,12.2c3.674,2.116,6.649,6.829,6.649,10.5v12.4C270.672,203.93,267.7,205.188,264.023,203.072Z" transform="translate(-231.698 -164.123)" fill="#a5deff"/>
      <path id="Path_361" data-name="Path 361" d="M266.153,177.243l-10.183,4.293-.639.26c-.619.26-.619,1.258,0,2.236l10.8,17.051a2.386,2.386,0,0,0,2.116,1.338c.359-.08.6-.359.6-.9v-21.6C268.869,178.5,267.152,176.823,266.153,177.243Z" transform="translate(-213.123 -151.113)" fill="#a5deff"/>
      <path id="Path_362" data-name="Path 362" d="M239.272,164.34l-4.492,2.8,1.318,3.893,5.391-3.354Z" transform="translate(-233.143 -163.907)" fill="#a5deff"/>
      <path id="Path_363" data-name="Path 363" d="M255.63,184.678l-4.592,2.835-1.438-2.076.7-2.2,4.632.519" transform="translate(-218.372 -145.07)" fill="#a5deff"/>
      <path id="Path_364" data-name="Path 364" d="M260.865,196.054l-2.8-4.413,2.2-5.391,2.436,2.136,2.376,4.992Z" transform="translate(-209.931 -142.07)" fill="#a5deff"/>
      <path id="Path_365" data-name="Path 365" d="M252.85,182.305l4.512-2.815,2.017,3.215-2.875,1.837Z" transform="translate(-215.133 -148.808)" fill="#a5deff"/>
      <path id="Path_366" data-name="Path 366" d="M261.753,204.469l-21.145-12.2c-3.674-2.116-6.649-6.829-6.649-10.5v-12.4c0-3.674,2.975-4.932,6.649-2.815l21.145,12.2c3.674,2.116,6.649,6.829,6.649,10.5v12.4C268.422,205.348,265.447,206.605,261.753,204.469Z" transform="translate(-233.96 -162.725)" fill="#fff"/>
      <path id="Path_367" data-name="Path 367" d="M263.884,178.642l-10.8,4.572c-.619.26-.619,1.258,0,2.236l10.8,17.051c1,1.577,2.715,1.857,2.715.439v-21.6C266.6,179.92,264.882,178.223,263.884,178.642Z" transform="translate(-215.365 -149.717)" fill="#fff"/>
    </g>
    <g id="XMLID_2040_" transform="translate(99.091 437.158)">
      <path id="XMLID_2376_" d="M182.547,280.852c-.12,2.995-3.115,4.932-5.77,6.329q-12.908,6.8-25.837,13.6c-2.236,1.178-4.712,2.915-7.208,3.474-1.4.319-17.351,1.178-18.729.459-3.035-1.577,8.586-4.333,5.511-5.81a11.4,11.4,0,0,1-6.389-7.527,7.516,7.516,0,0,1,.26-4.253l.24-.6L163.08,264.34a48.244,48.244,0,0,1,9.863,6.329C176.377,273.485,182.766,275.142,182.547,280.852Z" transform="translate(-105.337 -259.101)" fill="#80a5a5"/>
      <path id="XMLID_2375_" d="M185.072,280.093c0,.12-.02.22-.02.359,0,.06-.02.08-.02.12,0,.08-.02.16-.02.22s0,.1-.02.12a6.333,6.333,0,0,1-.12.7c-.06.26-.16.479-.22.7,0,.02,0,.08-.02.1-.1.26-.2.5-.319.759a6.927,6.927,0,0,1-.419.739,8.958,8.958,0,0,1-1.138,1.438,15.113,15.113,0,0,1-3.634,2.835L166,293.71c-4.173,2-8.566,6.21-13.138,9.584a21.679,21.679,0,0,1-9.943,4.033h0a31.927,31.927,0,0,1-20.186-3.953l-3.414-2a8.508,8.508,0,0,1-4.692-7.607,9.386,9.386,0,0,1,1.238-4.592c.879-1.557,1.537-2.775,2.536-4.293,0,0,4.712-5.71,7.627-8.645.859-.859,1.8-1.717,2.8-2.6a72.64,72.64,0,0,1,8.845-6.629,23.277,23.277,0,0,1,2.755-1.557c10.043-5.81,22.542-4.093,30.01,0a151.828,151.828,0,0,1,12.539,9.564,8.522,8.522,0,0,1,1.378,2.037c.12.26.22.5.319.759a4.579,4.579,0,0,1,.18.559c.02.1.06.2.08.3a3.263,3.263,0,0,1,.1.659C185.052,279.574,185.072,279.833,185.072,280.093Z" transform="translate(-114.61 -261.716)" fill="#e2e4e0"/>
      <path id="XMLID_2077_" d="M185,273.2a1.525,1.525,0,0,1,.02.339c0,.06,0,.1-.02.12a6.333,6.333,0,0,1-.12.7c-.06.26-.16.479-.22.7,0,.02,0,.08-.02.1-.1.26-.2.5-.319.759a6.943,6.943,0,0,1-.419.739,8.953,8.953,0,0,1-1.138,1.438,15.116,15.116,0,0,1-3.634,2.835l-2.935,1.238a80.581,80.581,0,0,0-19.727,12.12,30.05,30.05,0,0,1-5.79,3.834,19.077,19.077,0,0,1-5.93,1.7l-1.837.26a31.928,31.928,0,0,1-20.186-3.953l-3.414-2a8.508,8.508,0,0,1-4.692-7.607,9.386,9.386,0,0,1,1.238-4.592,42.458,42.458,0,0,1,2.536-4.293,84.512,84.512,0,0,1,7.627-8.645c-6.469,7.248-14.3,15.135-8.486,22.183.719.859,6.569,4.532,7.587,4.992,10.782,4.872,17.59.619,22.482-3.834.28-.26.559-.519.819-.8a58.168,58.168,0,0,1,30.309-18.709,14.077,14.077,0,0,1,5.611.1C184.8,273,184.942,272.983,185,273.2Z" transform="translate(-114.62 -254.467)" fill="#b4b4b4"/>
      <path id="XMLID_2451_" d="M184.42,272.589c0,.04-.02.06-.02.08a3.6,3.6,0,0,0-.519-.08,13.7,13.7,0,0,0-5.611-.1A58.169,58.169,0,0,0,147.962,291.2c-.26.28-.539.539-.819.8-3.814,3.474-8.805,6.809-15.913,5.79a32.7,32.7,0,0,1-8.965-3.454l-2.057-1.2a20.34,20.34,0,0,1-3.135-2.3,8.077,8.077,0,0,1-1.977-6.09,8.4,8.4,0,0,0,1.977,4.652c.719.859,6.569,4.532,7.587,4.992,10.782,4.872,17.59.619,22.482-3.834.28-.26.559-.519.819-.8a58.169,58.169,0,0,1,30.309-18.709,14.077,14.077,0,0,1,5.611.1c.479.06.639.04.679.26a1.522,1.522,0,0,1,.02.339c0,.06,0,.1-.02.12C184.52,272.13,184.46,272.349,184.42,272.589Z" transform="translate(-114.178 -252.675)" fill="#91908a"/>
      <path id="XMLID_1902_" d="M163.681,263.449a68.986,68.986,0,0,1,10.462,5.77c4.433,3.135,8.885,8.066,5.89,8.526s-14.855,3.454-20.845,7.308c-5.97,3.853-13.3,13.138-17.61,15.654-4.333,2.516-10.662,1.837-18.469-3.155-7.308-4.652-7.967-6.469-7.128-8.725,2-5.331,12.04-17.331,25.218-23.88C151.481,259.835,163.681,263.449,163.681,263.449Z" transform="translate(-113.545 -261.225)" fill="#f5f6f5"/>
    </g>
    <g id="Group_223" data-name="Group 223" transform="translate(158.352 27.474)">
      <path id="Path_368" data-name="Path 368" d="M144.3,56.53l32.086,30.509,10.9-1.478Z" transform="translate(-144.3 -56.53)" fill="url(#linear-gradient-7)"/>
      <path id="Path_369" data-name="Path 369" d="M194.556,95.125l8.985-10.063L144.3,56.53Z" transform="translate(-144.3 -56.53)" fill="url(#linear-gradient-8)"/>
      <path id="Path_370" data-name="Path 370" d="M220.492,95.9,208.173,74.24,144.3,56.53Z" transform="translate(-144.3 -56.53)" fill="url(#linear-gradient-9)"/>
    </g>
    <g id="Group_224" data-name="Group 224" transform="translate(287.874 0)">
      <path id="Path_371" data-name="Path 371" d="M209.17,42.77,260,91.129,277.3,88.773Z" transform="translate(-209.17 -42.77)" fill="url(#linear-gradient-10)"/>
      <path id="Path_372" data-name="Path 372" d="M288.816,103.947l14.216-15.973L209.17,42.77Z" transform="translate(-209.17 -42.77)" fill="url(#linear-gradient-11)"/>
      <path id="Path_373" data-name="Path 373" d="M329.927,105.165,310.38,70.843,209.17,42.77Z" transform="translate(-209.17 -42.77)" fill="url(#linear-gradient-12)"/>
    </g>
    <g id="Group_227" data-name="Group 227" transform="translate(338.788 335.459)">
      <g id="Group_226" data-name="Group 226">
        <g id="Group_225" data-name="Group 225">
          <path id="Path_374" data-name="Path 374" d="M281.991,235.018l-40.732-23.8a2.3,2.3,0,0,0-2.1-.3v-.02l-3.893,1.757s1.737.7,2.775,1.1l.379,26.456a7.556,7.556,0,0,0,3.334,5.81l38.935,22.742.04,3.095,3.933-1.777h-.02a2.279,2.279,0,0,0,1.058-2.256l-.379-26.995A7.5,7.5,0,0,0,281.991,235.018Z" transform="translate(-234.071 -210.781)" fill="url(#linear-gradient-13)"/>
          <path id="Path_375" data-name="Path 375" d="M279.136,270.705l-40.751-23.8a7.556,7.556,0,0,1-3.334-5.81L234.67,214.1c-.04-2.156,1.418-3.035,3.215-1.977l40.751,23.8a7.556,7.556,0,0,1,3.334,5.81l.379,26.995C282.39,270.885,280.933,271.763,279.136,270.705Z" transform="translate(-234.67 -209.89)" fill="url(#linear-gradient-14)"/>
          <path id="Path_376" data-name="Path 376" d="M278.6,235.779l-40.752-23.8a2.126,2.126,0,0,0-2.376-.14,2.654,2.654,0,0,1,1.617.419l40.752,23.8a7.556,7.556,0,0,1,3.335,5.81l.379,26.995a2.49,2.49,0,0,1-.839,2.136c.978-.1,1.617-.958,1.6-2.4l-.379-26.995A7.617,7.617,0,0,0,278.6,235.779Z" transform="translate(-233.872 -210.025)" fill="#fff"/>
        </g>
      </g>
      <path id="Path_377" data-name="Path 377" d="M253.579,222.07l3.354,7.967,8.346,5.131-6.429,1.737.958,7.428-7.288-6.888-7.747-.559,1.9-5.99-5.75-7.767,8.486,3.195Z" transform="translate(-228.44 -199.531)" fill="#fff"/>
    </g>
    <g id="Group_230" data-name="Group 230" transform="translate(270.343 278.734)">
      <g id="Group_229" data-name="Group 229">
        <g id="Group_228" data-name="Group 228">
          <path id="Path_378" data-name="Path 378" d="M248.56,207.027l-41.47-24.219a2.385,2.385,0,0,0-2.136-.3v-.02l-3.953,1.8s1.777.7,2.815,1.118l.379,26.915a7.717,7.717,0,0,0,3.394,5.91l39.633,23.141.04,3.155,4.013-1.8h-.02a2.3,2.3,0,0,0,1.078-2.3l-.4-27.494A7.531,7.531,0,0,0,248.56,207.027Z" transform="translate(-199.781 -182.371)" fill="url(#linear-gradient-15)"/>
          <path id="Path_379" data-name="Path 379" d="M245.654,243.367l-41.47-24.219a7.749,7.749,0,0,1-3.394-5.91l-.4-27.494c-.04-2.2,1.438-3.095,3.275-2.017l41.47,24.219a7.749,7.749,0,0,1,3.394,5.91l.4,27.494C248.949,243.527,247.491,244.426,245.654,243.367Z" transform="translate(-200.39 -181.474)" fill="url(#linear-gradient-16)"/>
          <path id="Path_380" data-name="Path 380" d="M245.1,207.8l-41.47-24.219a2.156,2.156,0,0,0-2.416-.14,2.8,2.8,0,0,1,1.657.419l41.47,24.219a7.749,7.749,0,0,1,3.394,5.91l.4,27.494a2.46,2.46,0,0,1-.859,2.156c1-.1,1.657-.978,1.637-2.436l-.4-27.494A7.794,7.794,0,0,0,245.1,207.8Z" transform="translate(-199.572 -181.609)" fill="#fff"/>
        </g>
      </g>
      <path id="Path_381" data-name="Path 381" d="M227.238,204.218c-1.478-3.654-4.972-6.529-7.767-6.409a2.925,2.925,0,0,0-1.7.559,11.308,11.308,0,0,0-4.433-4.692c-3.175-1.737-5.85-.519-5.97,2.7a8.324,8.324,0,0,0,.779,3.614A11.853,11.853,0,0,0,209.289,202l7.767,11.8,8.166-2.8C227.758,210.647,228.656,207.712,227.238,204.218Z" transform="translate(-193.434 -171.895)" fill="#fff"/>
    </g>
  </g>
</svg>
