<svg xmlns="http://www.w3.org/2000/svg" xmlns:xlink="http://www.w3.org/1999/xlink" width="903" height="319" viewBox="0 0 903 319">
  <defs>
    <clipPath id="clip-path">
      <rect id="Rectangle_172" data-name="Rectangle 172" width="1000" height="1000"/>
    </clipPath>
    <clipPath id="clip-path-31">
      <rect id="Rectangle_203" data-name="Rectangle 203" width="1000" height="1000" transform="translate(-263.872 -395)"/>
    </clipPath>
    <clipPath id="clip-Artboard_1">
      <rect width="903" height="319"/>
    </clipPath>
  </defs>
  <g id="Artboard_1" data-name="Artboard – 1" clip-path="url(#clip-Artboard_1)">
    <g id="DigiTech_Logo" transform="translate(-48 -340)">
      <g id="Group_477" data-name="Group 477" clip-path="url(#clip-path)">
        <path id="Path_619" data-name="Path 619" d="M352.37,614.086a89.471,89.471,0,0,1-33.353-6.043,76.118,76.118,0,0,1-26.058-17.068,77.528,77.528,0,0,1-16.95-26.348,97.5,97.5,0,0,1-.108-67.251,74.606,74.606,0,0,1,16.984-26.293A77.361,77.361,0,0,1,319.34,454.13a93.518,93.518,0,0,1,34.226-6.034c16.252,0,30.746,3.584,43.081,10.651a3.65,3.65,0,1,1-3.629,6.334c-11.215-6.427-24.489-9.685-39.452-9.685A86.3,86.3,0,0,0,322,460.926a70.142,70.142,0,0,0-23.982,15.344,67.365,67.365,0,0,0-15.313,23.745,90.219,90.219,0,0,0,.092,61.933,70.286,70.286,0,0,0,15.345,23.891,68.9,68.9,0,0,0,23.583,15.428,82.229,82.229,0,0,0,30.642,5.52,87.928,87.928,0,0,0,23.352-3.058,75.8,75.8,0,0,0,20.257-8.842,63.076,63.076,0,0,0,15.927-14.326,69.015,69.015,0,0,0,10.787-19.792,73.825,73.825,0,0,0,3.8-17.29,191.193,191.193,0,0,0,.978-20.357,3.65,3.65,0,1,1,7.3,0,198.065,198.065,0,0,1-1.016,21.1,81.105,81.105,0,0,1-4.181,19,76.31,76.31,0,0,1-11.938,21.871,70.375,70.375,0,0,1-17.765,15.975,83.083,83.083,0,0,1-22.2,9.7,95.317,95.317,0,0,1-25.292,3.319" fill="#fff"/>
      </g>
      <g id="Group_478" data-name="Group 478" clip-path="url(#clip-path)">
        <path id="Path_620" data-name="Path 620" d="M533.8,605.593H497.045a3.771,3.771,0,0,1-3.772-3.771V495.329h-24.4a3.772,3.772,0,0,1,0-7.544h28.174a3.772,3.772,0,0,1,3.772,3.772V598.048h29.21V491.557a3.772,3.772,0,0,1,3.772-3.772h30.188a3.772,3.772,0,1,1,0,7.544H537.571V601.822a3.77,3.77,0,0,1-3.771,3.771" fill="#ff931e"/>
      </g>
      <g id="Group_479" data-name="Group 479" clip-path="url(#clip-path)">
        <path id="Path_621" data-name="Path 621" d="M158.272,574.464h-8.439a3.772,3.772,0,1,1,0-7.544h8.439a42.133,42.133,0,0,0,15.663-2.73A32.837,32.837,0,0,0,185.3,556.8a31.713,31.713,0,0,0,7.037-11.156,41.073,41.073,0,0,0,2.478-14.517,39.942,39.942,0,0,0-2.562-14.4,31.555,31.555,0,0,0-18.508-18.667,41.625,41.625,0,0,0-15.475-2.729H153.6V546.69a3.772,3.772,0,0,1-7.545,0V491.559a3.773,3.773,0,0,1,3.773-3.772h8.439a49.1,49.1,0,0,1,18.276,3.269A39.081,39.081,0,0,1,199.3,514.02a47.445,47.445,0,0,1,3.064,17.1A48.6,48.6,0,0,1,199.4,548.3a39.21,39.21,0,0,1-8.716,13.785,40.325,40.325,0,0,1-13.947,9.11,49.612,49.612,0,0,1-18.465,3.269" fill="#ff931e"/>
      </g>
      <g id="Group_480" data-name="Group 480" clip-path="url(#clip-path)">
        <path id="Path_622" data-name="Path 622" d="M273.858,605.593H236.7a3.772,3.772,0,1,1,0-7.544h33.383V464.2h-18.67a3.773,3.773,0,0,1,0-7.545h22.442a3.772,3.772,0,0,1,3.772,3.772V601.82a3.773,3.773,0,0,1-3.772,3.773M237.1,533.542a3.771,3.771,0,0,1-3.771-3.772V473.9a3.771,3.771,0,1,1,7.543,0V529.77a3.772,3.772,0,0,1-3.772,3.772" fill="#fff"/>
      </g>
      <g id="Group_481" data-name="Group 481" clip-path="url(#clip-path)">
        <path id="Path_623" data-name="Path 623" d="M467.647,605.164H430.894a3.771,3.771,0,0,1-3.772-3.771V530.736a3.772,3.772,0,0,1,7.544,0V597.62h29.209v-106a3.772,3.772,0,1,1,7.544,0V601.392a3.772,3.772,0,0,1-3.772,3.772M430.895,496a3.772,3.772,0,0,1-3.772-3.772v-31.8a3.772,3.772,0,0,1,3.772-3.772h36.753a3.773,3.773,0,0,1,0,7.545H434.667v28.024A3.772,3.772,0,0,1,430.895,496" fill="#fff"/>
      </g>
      <g id="Group_482" data-name="Group 482" clip-path="url(#clip-path)">
        <path id="Path_624" data-name="Path 624" d="M549.778,464.2H497.031a3.773,3.773,0,1,1,0-7.545h52.747a3.773,3.773,0,0,1,0,7.545" fill="#fff"/>
      </g>
      <g id="Group_483" data-name="Group 483" clip-path="url(#clip-path)">
        <path id="Path_625" data-name="Path 625" d="M686.385,605.593H563.705a3.776,3.776,0,0,1-3.773-3.786l.3-71.032a3.773,3.773,0,0,1,3.772-3.759h.013a3.77,3.77,0,0,1,3.759,3.785l-.288,67.247H686.385a3.772,3.772,0,0,1,0,7.545" fill="#fff"/>
      </g>
      <g id="Group_484" data-name="Group 484" clip-path="url(#clip-path)">
        <path id="Path_626" data-name="Path 626" d="M652.7,574.464H601.46a3.771,3.771,0,0,1-3.772-3.771V546.314a3.772,3.772,0,0,1,3.772-3.772h41.255a3.772,3.772,0,0,1,0,7.544H605.233v16.833H652.7a3.773,3.773,0,0,1,0,7.545" fill="#fff"/>
      </g>
      <g id="Group_485" data-name="Group 485" clip-path="url(#clip-path)">
        <path id="Path_627" data-name="Path 627" d="M642.715,518.957H601.46a3.772,3.772,0,0,1-3.772-3.772V491.558a3.772,3.772,0,0,1,3.772-3.772h52.746a3.772,3.772,0,0,1,0,7.544H605.232v16.083h37.482a3.772,3.772,0,0,1,0,7.544" fill="#fff"/>
      </g>
      <g id="Group_486" data-name="Group 486" clip-path="url(#clip-path)">
        <path id="Path_628" data-name="Path 628" d="M644.152,464.2H578.169a3.914,3.914,0,0,1-3.979-3.57,3.772,3.772,0,0,1,3.767-3.975h68.01c3.784,3.329,1.478,7.545-1.815,7.545" fill="#fff"/>
      </g>
      <g id="Group_487" data-name="Group 487" clip-path="url(#clip-path)">
        <path id="Path_629" data-name="Path 629" d="M722.745,575.467a43.006,43.006,0,0,1-31-12.885,43.416,43.416,0,0,1-9.228-14.15,3.773,3.773,0,0,1,6.987-2.849A35.406,35.406,0,0,0,708.564,565.1a35.477,35.477,0,0,0,14.18,2.827c11.295,0,21.226-4.738,30.36-14.483a3.772,3.772,0,1,1,5.5,5.159c-10.49,11.192-22.556,16.867-35.864,16.867" fill="#ff931e"/>
      </g>
      <g id="Group_488" data-name="Group 488" clip-path="url(#clip-path)">
        <path id="Path_630" data-name="Path 630" d="M684.794,521.866a3.772,3.772,0,0,1-3.608-4.874c.385-1.262.832-2.52,1.33-3.74a43.218,43.218,0,0,1,9.128-14.051,42.788,42.788,0,0,1,13.848-9.349,44.229,44.229,0,0,1,17.448-3.439c14.185,0,26.241,5.936,35.835,17.644a3.772,3.772,0,1,1-5.835,4.783c-8.206-10.013-18.02-14.881-30-14.881a36.711,36.711,0,0,0-14.487,2.834,35.308,35.308,0,0,0-11.425,7.694A35.738,35.738,0,0,0,689.5,516.1c-.411,1.01-.783,2.05-1.1,3.093a3.773,3.773,0,0,1-3.606,2.67" fill="#ff931e"/>
      </g>
      <g id="Group_489" data-name="Group 489" clip-path="url(#clip-path)">
        <path id="Path_631" data-name="Path 631" d="M890.487,605.593H853.732a3.771,3.771,0,0,1-3.771-3.772V550.273H804.437v51.548a3.772,3.772,0,0,1-3.772,3.772H761.91a3.772,3.772,0,0,1,0-7.544h34.982V546.5a3.771,3.771,0,0,1,3.772-3.772h53.068A3.77,3.77,0,0,1,857.5,546.5v51.547h29.212V506.115a3.771,3.771,0,1,1,7.543,0v95.706a3.77,3.77,0,0,1-3.771,3.772M853.732,518.77H800.664A3.771,3.771,0,0,1,796.892,515V460.43a3.772,3.772,0,1,1,7.544,0v50.8H849.96v-50.8a3.772,3.772,0,0,1,3.771-3.773h36.755a3.772,3.772,0,0,1,3.772,3.773v18.335c0,2.083-1.688,2.821-3.772,2.821s-3.771-.738-3.771-2.821V464.2H857.5V515a3.77,3.77,0,0,1-3.771,3.771" fill="#fff"/>
      </g>
      <g id="Group_490" data-name="Group 490" clip-path="url(#clip-path)">
        <path id="Path_632" data-name="Path 632" d="M167.461,605.593H113.079a3.771,3.771,0,0,1-3.772-3.771v-17a3.773,3.773,0,0,1,7.545,0v13.225h50.609a61.127,61.127,0,0,0,25.71-5.469,69.545,69.545,0,0,0,20.995-14.765A68.13,68.13,0,0,0,228.2,556.4a65.613,65.613,0,0,0-.085-50.712,68.473,68.473,0,0,0-14.128-21.332,70.478,70.478,0,0,0-21.008-14.683,60.722,60.722,0,0,0-25.522-5.469H116.852v92.109a3.773,3.773,0,0,1-7.545,0V460.429a3.772,3.772,0,0,1,3.772-3.772h54.382a68.219,68.219,0,0,1,28.671,6.158,77.985,77.985,0,0,1,23.246,16.257,75.97,75.97,0,0,1,15.688,23.672,73.154,73.154,0,0,1,.1,56.553,75.7,75.7,0,0,1-15.591,23.775,77.044,77.044,0,0,1-23.261,16.364,68.613,68.613,0,0,1-28.857,6.157" fill="#fff"/>
      </g>
      <g id="Group_491" data-name="Group 491" clip-path="url(#clip-path)">
        <path id="Path_633" data-name="Path 633" d="M113.407,585.535a15.1,15.1,0,1,1,15.1-15.1,15.117,15.117,0,0,1-15.1,15.1m0-23a7.9,7.9,0,1,0,7.9,7.9,7.909,7.909,0,0,0-7.9-7.9" fill="#ff931e"/>
      </g>
      <g id="Group_492" data-name="Group 492" clip-path="url(#clip-path)">
        <path id="Path_634" data-name="Path 634" d="M236.407,475.535a15.1,15.1,0,1,1,15.1-15.1,15.117,15.117,0,0,1-15.1,15.1m0-23a7.9,7.9,0,1,0,7.9,7.9,7.909,7.909,0,0,0-7.9-7.9" fill="#ff931e"/>
      </g>
      <g id="Group_493" data-name="Group 493" clip-path="url(#clip-path)">
        <path id="Path_635" data-name="Path 635" d="M564.593,475.535a15.1,15.1,0,1,1,15.1-15.1,15.117,15.117,0,0,1-15.1,15.1m0-23a7.9,7.9,0,1,0,7.9,7.9,7.909,7.909,0,0,0-7.9-7.9" fill="#ff931e"/>
      </g>
      <g id="Group_494" data-name="Group 494" clip-path="url(#clip-path)">
        <path id="Path_636" data-name="Path 636" d="M685.593,546.535a15.1,15.1,0,1,1,15.1-15.1,15.117,15.117,0,0,1-15.1,15.1m0-23a7.9,7.9,0,1,0,7.9,7.9,7.909,7.909,0,0,0-7.9-7.9" fill="#ff931e"/>
      </g>
      <g id="Group_495" data-name="Group 495" clip-path="url(#clip-path)">
        <path id="Path_637" data-name="Path 637" d="M890.593,506.535a15.1,15.1,0,1,1,15.1-15.1,15.117,15.117,0,0,1-15.1,15.1m0-23a7.9,7.9,0,1,0,7.9,7.9,7.909,7.909,0,0,0-7.9-7.9" fill="#ff931e"/>
      </g>
      <g id="Group_496" data-name="Group 496" clip-path="url(#clip-path)">
        <path id="Path_638" data-name="Path 638" d="M352.407,504.1a15.1,15.1,0,1,1,15.1-15.1,15.117,15.117,0,0,1-15.1,15.1m0-23a7.9,7.9,0,1,0,7.9,7.9,7.909,7.909,0,0,0-7.9-7.9" fill="#ff931e"/>
      </g>
      <g id="Group_497" data-name="Group 497" clip-path="url(#clip-path)">
        <path id="Path_639" data-name="Path 639" d="M351.907,575a44.506,44.506,0,0,1-11.746-87.432,3.5,3.5,0,0,1,1.844,6.753A37.5,37.5,0,1,0,389.245,534H351.907a3.5,3.5,0,0,1,0-7h41a3.5,3.5,0,0,1,3.5,3.5,44.551,44.551,0,0,1-44.5,44.5" fill="#ff931e"/>
      </g>
      <g id="Group_498" data-name="Group 498" clip-path="url(#clip-path)">
        <path id="Path_640" data-name="Path 640" d="M687.2,605.242a3.5,3.5,0,0,1-1.636-.408A83.512,83.512,0,1,1,770.734,461.4a3.5,3.5,0,0,1-3.873,5.831,76.512,76.512,0,1,0-78.025,131.421,3.5,3.5,0,0,1-1.641,6.594" fill="#fff"/>
      </g>
      <g id="Group_499" data-name="Group 499" clip-path="url(#clip-path)">
        <path id="Path_641" data-name="Path 641" d="M762.168,601.483A76.3,76.3,0,0,1,724.593,611" fill="#fff"/>
      </g>
      <g id="Group_500" data-name="Group 500" clip-path="url(#clip-path)">
        <path id="Path_642" data-name="Path 642" d="M724.593,614.5a3.5,3.5,0,0,1,0-7,72.659,72.659,0,0,0,35.89-9.084,3.5,3.5,0,0,1,3.371,6.135,79.491,79.491,0,0,1-39.261,9.949" fill="#fff"/>
      </g>
      <g id="Group_501" data-name="Group 501" clip-path="url(#clip-path)">
        <path id="Path_643" data-name="Path 643" d="M109.684,397.018H123.37c10.757,0,18.009,6.915,18.009,16.808s-7.252,16.807-18.009,16.807H109.684Zm13.5,30.542c8.932,0,14.694-5.667,14.694-13.734s-5.762-13.735-14.694-13.735h-9.941V427.56Z" fill="#fff"/>
      </g>
      <g id="Group_502" data-name="Group 502" clip-path="url(#clip-path)">
        <path id="Path_644" data-name="Path 644" d="M149.3,397.4a2.46,2.46,0,0,1,2.5-2.4,2.422,2.422,0,0,1,2.5,2.354,2.5,2.5,0,0,1-4.993.047m.767,7.972h3.409v25.26h-3.409Z" fill="#fff"/>
      </g>
      <g id="Group_503" data-name="Group 503" clip-path="url(#clip-path)">
        <path id="Path_645" data-name="Path 645" d="M187.812,405.373V427.56c0,8.692-4.274,12.63-12.629,12.63-4.612,0-9.125-1.393-11.766-3.891l1.728-2.592a15.034,15.034,0,0,0,9.941,3.457c6.388,0,9.316-2.929,9.316-9.172v-3.217a11.366,11.366,0,0,1-9.844,4.9c-7.205,0-12.678-5.042-12.678-12.293s5.473-12.2,12.678-12.2c4.226,0,7.876,1.729,9.989,5.042v-4.85ZM184.5,417.379c0-5.475-4.034-9.22-9.6-9.22s-9.557,3.745-9.557,9.22,3.986,9.268,9.557,9.268,9.6-3.794,9.6-9.268" fill="#fff"/>
      </g>
      <g id="Group_504" data-name="Group 504" clip-path="url(#clip-path)">
        <path id="Path_646" data-name="Path 646" d="M198.039,397.4a2.46,2.46,0,0,1,2.5-2.4,2.421,2.421,0,0,1,2.5,2.354,2.5,2.5,0,0,1-4.993.047m.768,7.972h3.409v25.26h-3.409Z" fill="#fff"/>
      </g>
      <g id="Group_505" data-name="Group 505" clip-path="url(#clip-path)">
        <path id="Path_647" data-name="Path 647" d="M226.467,429.1a8.125,8.125,0,0,1-5.331,1.777c-4.754,0-7.4-2.689-7.4-7.347V408.254h-4.513v-2.882h4.513V399.85h3.411v5.522h7.683v2.882h-7.683v15.079c0,2.978,1.537,4.611,4.37,4.611a5.65,5.65,0,0,0,3.746-1.3Z" fill="#fff"/>
      </g>
      <g id="Group_506" data-name="Group 506" clip-path="url(#clip-path)">
        <path id="Path_648" data-name="Path 648" d="M253.165,414.978v15.655H249.9V426.7c-1.537,2.593-4.514,4.178-8.693,4.178-5.714,0-9.22-2.978-9.22-7.348,0-3.89,2.5-7.155,9.748-7.155h8.02v-1.537c0-4.322-2.448-6.675-7.154-6.675a12.881,12.881,0,0,0-8.406,2.977l-1.536-2.545a16.039,16.039,0,0,1,10.278-3.409c6.53,0,10.228,3.264,10.228,9.8m-3.41,8.067v-4.13h-7.923c-4.9,0-6.483,1.921-6.483,4.514,0,2.929,2.352,4.755,6.386,4.755,3.843,0,6.676-1.826,8.02-5.139" fill="#fff"/>
      </g>
      <g id="Group_507" data-name="Group 507" transform="translate(263.872 395)" clip-path="url(#clip-path-31)">
        <rect id="Rectangle_202" data-name="Rectangle 202" width="3.409" height="35.633" fill="#fff"/>
      </g>
      <g id="Group_508" data-name="Group 508" clip-path="url(#clip-path)">
        <path id="Path_649" data-name="Path 649" d="M314.054,421.652H295.325l-4.033,8.98h-3.7l15.367-33.615h3.506l15.367,33.615h-3.746Zm-1.3-2.881-8.068-18.057-8.068,18.057Z" fill="#fff"/>
      </g>
      <g id="Group_509" data-name="Group 509" clip-path="url(#clip-path)">
        <path id="Path_650" data-name="Path 650" d="M340.848,405.181v3.313c-.288,0-.576-.048-.816-.048-5.284,0-8.5,3.362-8.5,9.317v12.87h-3.411V405.372h3.266v4.947c1.585-3.362,4.8-5.138,9.461-5.138" fill="#fff"/>
      </g>
      <g id="Group_510" data-name="Group 510" clip-path="url(#clip-path)">
        <path id="Path_651" data-name="Path 651" d="M362.84,429.1a8.12,8.12,0,0,1-5.33,1.777c-4.755,0-7.4-2.689-7.4-7.347V408.254H345.6v-2.882h4.513V399.85h3.41v5.522h7.684v2.882h-7.684v15.079c0,2.978,1.537,4.611,4.371,4.611a5.645,5.645,0,0,0,3.745-1.3Z" fill="#fff"/>
      </g>
      <g id="Group_511" data-name="Group 511" clip-path="url(#clip-path)">
        <path id="Path_652" data-name="Path 652" d="M366.969,427.751l1.536-2.689a15.255,15.255,0,0,0,8.981,2.833c4.8,0,6.77-1.633,6.77-4.13,0-6.579-16.376-1.393-16.376-11.381,0-4.13,3.555-7.2,9.989-7.2a17.116,17.116,0,0,1,8.933,2.353l-1.488,2.737a12.953,12.953,0,0,0-7.445-2.161c-4.561,0-6.579,1.777-6.579,4.178,0,6.819,16.376,1.681,16.376,11.381,0,4.37-3.842,7.2-10.421,7.2-4.177,0-8.212-1.345-10.276-3.122" fill="#fff"/>
      </g>
      <g id="Group_512" data-name="Group 512" clip-path="url(#clip-path)">
        <path id="Path_653" data-name="Path 653" d="M434.2,431.161l-4.657-4.8a14.837,14.837,0,0,1-11.237,4.562c-6.579,0-11.287-3.458-11.287-8.549,0-3.985,2.3-6.914,8.453-10.468-3.265-3.362-4.226-5.378-4.226-7.972,0-4.274,3.314-7.155,8.5-7.155,4.755,0,7.828,2.5,7.828,6.675,0,3.362-2.017,5.715-7.492,8.884l9.221,9.508a21,21,0,0,0,2.257-6.482l2.785.864a22.987,22.987,0,0,1-2.978,7.731l4.8,4.947Zm-6.674-6.867-10.133-10.421c-5.378,3.073-7.012,5.187-7.012,8.164,0,3.649,3.265,6.051,8.117,6.051a11.687,11.687,0,0,0,9.028-3.794m-13.111-20.41c0,1.969.721,3.361,3.8,6.483,4.85-2.785,6.434-4.466,6.434-6.867,0-2.5-1.777-4.178-4.9-4.178-3.362,0-5.331,1.873-5.331,4.562" fill="#fff"/>
      </g>
      <g id="Group_513" data-name="Group 513" clip-path="url(#clip-path)">
        <path id="Path_654" data-name="Path 654" d="M454.507,426.551l1.394-2.738a16.5,16.5,0,0,0,11.092,4.082c6.291,0,9.029-2.641,9.029-5.954,0-9.221-20.7-3.554-20.7-15.992,0-4.946,3.843-9.22,12.391-9.22a18.979,18.979,0,0,1,10.421,2.977l-1.2,2.833a17.313,17.313,0,0,0-9.22-2.785c-6.147,0-8.885,2.737-8.885,6.1,0,9.22,20.7,3.65,20.7,15.895,0,4.947-3.938,9.173-12.534,9.173-5.042,0-9.989-1.776-12.486-4.37" fill="#fff"/>
      </g>
      <g id="Group_514" data-name="Group 514" clip-path="url(#clip-path)">
        <path id="Path_655" data-name="Path 655" d="M485.431,418c0-7.54,5.476-12.822,13.015-12.822,4.274,0,7.875,1.68,9.892,4.994l-2.545,1.729a8.588,8.588,0,0,0-7.347-3.745c-5.523,0-9.557,3.937-9.557,9.844,0,5.955,4.034,9.845,9.557,9.845a8.546,8.546,0,0,0,7.347-3.7l2.545,1.728c-2.018,3.266-5.618,4.995-9.892,4.995-7.539,0-13.015-5.33-13.015-12.87" fill="#fff"/>
      </g>
      <g id="Group_515" data-name="Group 515" clip-path="url(#clip-path)">
        <path id="Path_656" data-name="Path 656" d="M515.683,397.4a2.46,2.46,0,0,1,2.5-2.4,2.421,2.421,0,0,1,2.5,2.354,2.5,2.5,0,0,1-4.994.047m.768,7.972h3.409v25.26h-3.409Z" fill="#fff"/>
      </g>
      <g id="Group_516" data-name="Group 516" clip-path="url(#clip-path)">
        <path id="Path_657" data-name="Path 657" d="M552.8,419.059h-21.13c.385,5.283,4.419,8.788,9.941,8.788a9.951,9.951,0,0,0,7.73-3.313l1.922,2.209a12.436,12.436,0,0,1-9.749,4.13c-7.875,0-13.254-5.379-13.254-12.87s5.234-12.822,12.342-12.822S552.85,410.415,552.85,418c0,.288-.047.672-.047,1.056m-21.13-2.545h17.912a8.974,8.974,0,0,0-17.912,0" fill="#fff"/>
      </g>
      <g id="Group_517" data-name="Group 517" clip-path="url(#clip-path)">
        <path id="Path_658" data-name="Path 658" d="M584.495,415.986v14.646h-3.409V416.321c0-5.33-2.785-8.067-7.588-8.067-5.427,0-8.837,3.361-8.837,9.125v13.253h-3.409v-25.26h3.266v4.658c1.825-3.073,5.235-4.849,9.6-4.849,6.146,0,10.373,3.553,10.373,10.805" fill="#fff"/>
      </g>
      <g id="Group_518" data-name="Group 518" clip-path="url(#clip-path)">
        <path id="Path_659" data-name="Path 659" d="M592.752,418c0-7.54,5.476-12.822,13.015-12.822,4.274,0,7.875,1.68,9.893,4.994l-2.545,1.729a8.587,8.587,0,0,0-7.348-3.745c-5.522,0-9.557,3.937-9.557,9.844,0,5.955,4.034,9.845,9.557,9.845a8.546,8.546,0,0,0,7.348-3.7l2.545,1.728c-2.018,3.266-5.618,4.995-9.893,4.995-7.539,0-13.015-5.33-13.015-12.87" fill="#fff"/>
      </g>
      <g id="Group_519" data-name="Group 519" clip-path="url(#clip-path)">
        <path id="Path_660" data-name="Path 660" d="M645.335,419.059h-21.13c.385,5.283,4.419,8.788,9.941,8.788a9.955,9.955,0,0,0,7.731-3.313l1.921,2.209a12.436,12.436,0,0,1-9.749,4.13c-7.875,0-13.254-5.379-13.254-12.87s5.235-12.822,12.342-12.822,12.245,5.234,12.245,12.822c0,.288-.047.672-.047,1.056m-21.13-2.545h17.912a8.974,8.974,0,0,0-17.912,0" fill="#fff"/>
      </g>
    </g>
  </g>
</svg>
