<?xml version="1.0" encoding="utf-8"?>
<!-- Generator: Adobe Illustrator 16.0.0, SVG Export Plug-In . SVG Version: 6.00 Build 0)  -->
<!DOCTYPE svg PUBLIC "-//W3C//DTD SVG 1.1//EN" "http://www.w3.org/Graphics/SVG/1.1/DTD/svg11.dtd">
<svg version="1.1" id="Layer_1" xmlns="http://www.w3.org/2000/svg" xmlns:xlink="http://www.w3.org/1999/xlink" x="0px" y="0px"
	 width="500px" height="250px" viewBox="0 0 500 250" enable-background="new 0 0 500 250" xml:space="preserve">
<g id="name_cover" transform="translate(-42.53 -88.352)">
	<g id="Group_231" transform="translate(250.494 183.458)" opacity="0.5">
		<rect id="Rectangle_39" x="-6.018" y="-8.417" fill="#3BDFAF" width="3.277" height="3.277"/>
		<rect id="Rectangle_40" x="0.524" y="-8.417" fill="#3BDFAF" width="3.277" height="3.277"/>
		<rect id="Rectangle_41" x="7.077" y="-8.417" fill="#3BDFAF" width="3.276" height="3.277"/>
		<rect id="Rectangle_42" x="13.596" y="-8.417" fill="#3BDFAF" width="3.277" height="3.277"/>
		<rect id="Rectangle_43" x="-6.018" y="-1.864" fill="#3BDFAF" width="3.277" height="3.276"/>
		<rect id="Rectangle_44" x="0.524" y="-1.864" fill="#3BDFAF" width="3.277" height="3.276"/>
		<rect id="Rectangle_45" x="7.077" y="-1.864" fill="#3BDFAF" width="3.276" height="3.276"/>
		<rect id="Rectangle_46" x="13.596" y="-1.864" fill="#3BDFAF" width="3.277" height="3.276"/>
		<rect id="Rectangle_47" x="-6.018" y="4.69" fill="#3BDFAF" width="3.277" height="3.277"/>
		<rect id="Rectangle_48" x="0.524" y="4.69" fill="#3BDFAF" width="3.277" height="3.277"/>
		<rect id="Rectangle_49" x="7.077" y="4.69" fill="#3BDFAF" width="3.276" height="3.277"/>
		<rect id="Rectangle_50" x="13.596" y="4.69" fill="#3BDFAF" width="3.277" height="3.277"/>
		<rect id="Rectangle_51" x="-6.018" y="11.243" fill="#3BDFAF" width="3.277" height="3.277"/>
		<rect id="Rectangle_52" x="0.524" y="11.243" fill="#3BDFAF" width="3.277" height="3.277"/>
		<rect id="Rectangle_53" x="7.077" y="11.243" fill="#3BDFAF" width="3.276" height="3.277"/>
		<rect id="Rectangle_54" x="13.596" y="11.243" fill="#3BDFAF" width="3.277" height="3.277"/>
	</g>
	<g id="Group_232" transform="translate(57.958 244.539)" opacity="0.35">
		
			<rect id="Rectangle_55" x="17.641" y="-15.924" fill="none" stroke="#3BDFAF" stroke-width="0.25" stroke-miterlimit="10" width="4.806" height="4.808"/>
		
			<rect id="Rectangle_56" x="27.263" y="-15.924" fill="none" stroke="#3BDFAF" stroke-width="0.25" stroke-miterlimit="10" width="4.806" height="4.808"/>
		
			<rect id="Rectangle_57" x="36.875" y="-15.924" fill="none" stroke="#3BDFAF" stroke-width="0.25" stroke-miterlimit="10" width="4.806" height="4.808"/>
		
			<rect id="Rectangle_58" x="46.44" y="-15.924" fill="none" stroke="#3BDFAF" stroke-width="0.25" stroke-miterlimit="10" width="4.806" height="4.808"/>
		
			<rect id="Rectangle_59" x="17.641" y="-6.311" fill="none" stroke="#3BDFAF" stroke-width="0.25" stroke-miterlimit="10" width="4.806" height="4.804"/>
		
			<rect id="Rectangle_60" x="27.263" y="-6.311" fill="none" stroke="#3BDFAF" stroke-width="0.25" stroke-miterlimit="10" width="4.806" height="4.804"/>
		
			<rect id="Rectangle_61" x="36.875" y="-6.311" fill="none" stroke="#3BDFAF" stroke-width="0.25" stroke-miterlimit="10" width="4.806" height="4.804"/>
		
			<rect id="Rectangle_62" x="46.44" y="-6.311" fill="none" stroke="#3BDFAF" stroke-width="0.25" stroke-miterlimit="10" width="4.806" height="4.804"/>
		
			<rect id="Rectangle_63" x="17.641" y="3.312" fill="none" stroke="#3BDFAF" stroke-width="0.25" stroke-miterlimit="10" width="4.806" height="4.806"/>
		
			<rect id="Rectangle_64" x="27.263" y="3.312" fill="none" stroke="#3BDFAF" stroke-width="0.25" stroke-miterlimit="10" width="4.806" height="4.806"/>
		
			<rect id="Rectangle_65" x="36.875" y="3.312" fill="none" stroke="#3BDFAF" stroke-width="0.25" stroke-miterlimit="10" width="4.806" height="4.806"/>
		
			<rect id="Rectangle_66" x="46.44" y="3.312" fill="none" stroke="#3BDFAF" stroke-width="0.25" stroke-miterlimit="10" width="4.806" height="4.806"/>
		
			<rect id="Rectangle_67" x="17.641" y="12.923" fill="none" stroke="#3BDFAF" stroke-width="0.25" stroke-miterlimit="10" width="4.806" height="4.806"/>
		
			<rect id="Rectangle_68" x="27.263" y="12.923" fill="none" stroke="#3BDFAF" stroke-width="0.25" stroke-miterlimit="10" width="4.806" height="4.806"/>
		
			<rect id="Rectangle_69" x="36.875" y="12.923" fill="none" stroke="#3BDFAF" stroke-width="0.25" stroke-miterlimit="10" width="4.806" height="4.806"/>
		
			<rect id="Rectangle_70" x="46.44" y="12.923" fill="none" stroke="#3BDFAF" stroke-width="0.25" stroke-miterlimit="10" width="4.806" height="4.806"/>
	</g>
	<g id="Group_233" transform="translate(207.357 256.847)" opacity="0.35">
		<path id="Path_382" fill="none" stroke="#3BDFAF" stroke-width="0.5" stroke-miterlimit="10" d="M15.402-17.436h27.799
			l8.232,8.246h29.845l7.895-7.894h29.156"/>
		<path id="Path_383" fill="none" stroke="#3BDFAF" stroke-width="0.5" stroke-miterlimit="10" d="M-0.717-4.73h27.788l8.232,8.231
			H65.16l7.887-7.895h29.169"/>
		<path id="Path_384" fill="none" stroke="#3BDFAF" stroke-width="0.5" stroke-miterlimit="10" d="M47.995,8.87h19.568l8.245,8.23
			h18.876l7.887-7.888h29.168"/>
		<path id="Path_385" fill="none" stroke="#3BDFAF" stroke-width="0.5" stroke-miterlimit="10" d="M-0.154,21.689h19.567
			l8.232,8.231h18.89l7.887-7.888H83.59"/>
		<path id="Path_386" fill="none" stroke="#3BDFAF" stroke-width="0.5" stroke-miterlimit="10" d="M93.868,21.689H74.299
			l-8.232-8.245H47.179l-7.887,7.894H10.124"/>
	</g>
	<g id="Group_234" transform="translate(74.316 288.331)">
		
			<linearGradient id="Path_387_1_" gradientUnits="userSpaceOnUse" x1="-25.8265" y1="54.0015" x2="-25.8265" y2="53.1235" gradientTransform="matrix(41.053 0 0 -74.634 1093.8749 4008.9751)">
			<stop  offset="0.003" style="stop-color:#DE1075"/>
			<stop  offset="0.106" style="stop-color:#D71378"/>
			<stop  offset="0.25" style="stop-color:#C51B7F"/>
			<stop  offset="0.42" style="stop-color:#A7288B"/>
			<stop  offset="0.608" style="stop-color:#7D3A9B"/>
			<stop  offset="0.655" style="stop-color:#713FA0"/>
			<stop  offset="0.768" style="stop-color:#5B41A8"/>
			<stop  offset="0.997" style="stop-color:#2545BC"/>
		</linearGradient>
		<path id="Path_387" fill="url(#Path_387_1_)" d="M51.639,44.17H41.26l-1.782-11.876H26.852L25.081,44.17h-9.45l10.474-65.462
			h15.061L51.639,44.17z M28.162,23.407h9.912L33.119-9.706L28.162,23.407z"/>
		
			<linearGradient id="Path_388_1_" gradientUnits="userSpaceOnUse" x1="-25.4154" y1="54.0005" x2="-25.4154" y2="53.1235" gradientTransform="matrix(36.471 0 0 -74.647 999.3248 4009.6909)">
			<stop  offset="0.003" style="stop-color:#DE1075"/>
			<stop  offset="0.106" style="stop-color:#D71378"/>
			<stop  offset="0.25" style="stop-color:#C51B7F"/>
			<stop  offset="0.42" style="stop-color:#A7288B"/>
			<stop  offset="0.608" style="stop-color:#7D3A9B"/>
			<stop  offset="0.655" style="stop-color:#713FA0"/>
			<stop  offset="0.768" style="stop-color:#5B41A8"/>
			<stop  offset="0.997" style="stop-color:#2545BC"/>
		</linearGradient>
		<path id="Path_388" fill="url(#Path_388_1_)" d="M77.921,44.17c-0.563-1.68-0.932-2.712-0.932-8.048v-10.29
			c0-6.082-2.058-8.324-6.737-8.324h-3.552v26.649H56.41v-65.462h15.525c10.657,0,15.245,4.956,15.245,15.061v5.139
			c0,6.739-2.149,11.129-6.737,13.28c5.139,2.148,6.829,7.104,6.829,13.933v10.109c0,3.186,0.088,5.519,1.127,7.944H77.921V44.17z
			 M66.699-11.946V8.163h4.024c3.84,0,6.174-1.677,6.174-6.923v-6.446c0-4.681-1.586-6.739-5.243-6.739H66.699z"/>
		
			<linearGradient id="Path_389_1_" gradientUnits="userSpaceOnUse" x1="-25.5209" y1="54.0015" x2="-25.5209" y2="53.1245" gradientTransform="matrix(36.268 0 0 -74.648 1032.4977 4009.7358)">
			<stop  offset="0.003" style="stop-color:#DE1075"/>
			<stop  offset="0.106" style="stop-color:#D71378"/>
			<stop  offset="0.25" style="stop-color:#C51B7F"/>
			<stop  offset="0.42" style="stop-color:#A7288B"/>
			<stop  offset="0.608" style="stop-color:#7D3A9B"/>
			<stop  offset="0.655" style="stop-color:#713FA0"/>
			<stop  offset="0.768" style="stop-color:#5B41A8"/>
			<stop  offset="0.997" style="stop-color:#2545BC"/>
		</linearGradient>
		<path id="Path_389" fill="url(#Path_389_1_)" d="M91.015-21.292h31.8v9.358h-10.76v56.114h-10.29v-56.114H91.005v-9.358H91.015z"
			/>
		
			<linearGradient id="Path_390_1_" gradientUnits="userSpaceOnUse" x1="-25.0189" y1="53.5532" x2="-25.0189" y2="52.6763" gradientTransform="matrix(30.921 0 0 -60.316 951.3817 3222.0854)">
			<stop  offset="0.003" style="stop-color:#DE1075"/>
			<stop  offset="0.106" style="stop-color:#D71378"/>
			<stop  offset="0.25" style="stop-color:#C51B7F"/>
			<stop  offset="0.42" style="stop-color:#A7288B"/>
			<stop  offset="0.608" style="stop-color:#7D3A9B"/>
			<stop  offset="0.655" style="stop-color:#713FA0"/>
			<stop  offset="0.768" style="stop-color:#5B41A8"/>
			<stop  offset="0.997" style="stop-color:#2545BC"/>
		</linearGradient>
		<path id="Path_390" fill="url(#Path_390_1_)" d="M169.907,16.682c-3.885-1.644-5.679-5.149-5.679-10.762V4.958
			c0-8.372,4.035-12.926,12.256-12.926h9.416v7.476h-9.267c-2.609,0-4.185,1.345-4.185,5.081v3.207c0,4.186,1.862,5.525,4.932,5.525
			h3.588V7.495h8.22v5.835h2.161V20.8h-2.161v17.194c0,2.542,0.081,4.402,0.896,6.345h-8.369c-0.481-1.314-0.734-2.702-0.747-4.104
			c-1.426,3.061-3.956,4.702-7.623,4.702c-6.048,0-9.117-4.254-9.117-11.955v-5.301C164.228,22.363,165.868,18.474,169.907,16.682z
			 M176.702,37.457c2.456,0,4.104-1.266,4.254-4.554V20.798h-3.139c-3.736,0-5.38,1.795-5.38,6.646v4.853
			C172.446,36.032,174.092,37.457,176.702,37.457L176.702,37.457z"/>
		
			<linearGradient id="Path_391_1_" gradientUnits="userSpaceOnUse" x1="-25.6488" y1="53.9946" x2="-25.6488" y2="53.1167" gradientTransform="matrix(34.067 0 0 -74.372 1086.8495 3994.3716)">
			<stop  offset="0.003" style="stop-color:#DE1075"/>
			<stop  offset="0.106" style="stop-color:#D71378"/>
			<stop  offset="0.25" style="stop-color:#C51B7F"/>
			<stop  offset="0.42" style="stop-color:#A7288B"/>
			<stop  offset="0.608" style="stop-color:#7D3A9B"/>
			<stop  offset="0.655" style="stop-color:#713FA0"/>
			<stop  offset="0.768" style="stop-color:#5B41A8"/>
			<stop  offset="0.997" style="stop-color:#2545BC"/>
		</linearGradient>
		<path id="Path_391" fill="url(#Path_391_1_)" d="M213.125-21.259c9.748,0,14.761,5.83,14.761,16.037v2.002h-9.472v-2.644
			c0-4.552-1.816-6.289-5.013-6.289s-5.013,1.724-5.013,6.289c0,13.117,19.591,15.578,19.591,33.801
			c0,10.198-5.107,16.037-14.935,16.037c-9.83,0-14.946-5.83-14.946-16.037v-3.923h9.473v4.555c0,4.554,2.001,6.197,5.197,6.197
			s5.196-1.644,5.196-6.197c0-13.118-19.59-15.579-19.59-33.801C198.362-15.429,203.375-21.259,213.125-21.259z"/>
		
			<linearGradient id="Path_392_1_" gradientUnits="userSpaceOnUse" x1="-25.3509" y1="53.9946" x2="-25.3509" y2="53.1167" gradientTransform="matrix(34.067 0 0 -74.372 1004.162 3994.3716)">
			<stop  offset="0.003" style="stop-color:#DE1075"/>
			<stop  offset="0.106" style="stop-color:#D71378"/>
			<stop  offset="0.25" style="stop-color:#C51B7F"/>
			<stop  offset="0.42" style="stop-color:#A7288B"/>
			<stop  offset="0.608" style="stop-color:#7D3A9B"/>
			<stop  offset="0.655" style="stop-color:#713FA0"/>
			<stop  offset="0.768" style="stop-color:#5B41A8"/>
			<stop  offset="0.997" style="stop-color:#2545BC"/>
		</linearGradient>
		<path id="Path_392" fill="url(#Path_392_1_)" d="M140.59-21.259c9.75,0,14.762,5.83,14.762,16.037v2.002h-9.472v-2.644
			c0-4.552-1.817-6.289-5.013-6.289s-5.013,1.724-5.013,6.289c0,13.117,19.59,15.578,19.59,33.801
			c0,10.198-5.104,16.037-14.935,16.037c-9.83,0-14.946-5.83-14.946-16.037v-3.923h9.473v4.555c0,4.554,2.001,6.197,5.197,6.197
			s5.197-1.644,5.197-6.197c0-13.118-19.591-15.579-19.591-33.801C125.827-15.429,130.841-21.259,140.59-21.259z"/>
		
			<linearGradient id="Path_393_1_" gradientUnits="userSpaceOnUse" x1="-25.7948" y1="53.9946" x2="-25.7948" y2="53.1167" gradientTransform="matrix(34.08 0 0 -74.385 1126.8878 3995.0747)">
			<stop  offset="0.003" style="stop-color:#DE1075"/>
			<stop  offset="0.106" style="stop-color:#D71378"/>
			<stop  offset="0.25" style="stop-color:#C51B7F"/>
			<stop  offset="0.42" style="stop-color:#A7288B"/>
			<stop  offset="0.608" style="stop-color:#7D3A9B"/>
			<stop  offset="0.655" style="stop-color:#713FA0"/>
			<stop  offset="0.768" style="stop-color:#5B41A8"/>
			<stop  offset="0.997" style="stop-color:#2545BC"/>
		</linearGradient>
		<path id="Path_393" fill="url(#Path_393_1_)" d="M262.769,19.462v8.475c0,10.198-5.104,16.037-14.947,16.037
			c-9.84,0-14.945-5.83-14.945-16.037V-5.232c0-10.197,5.105-16.038,14.945-16.038c9.844,0,14.947,5.83,14.947,16.038v6.196h-9.473
			v-6.828c0-4.552-2.002-6.289-5.197-6.289s-5.197,1.724-5.197,6.289v34.433c0,4.554,2.002,6.197,5.197,6.197
			s5.197-1.644,5.197-6.197v-9.106H262.769z"/>
		
			<linearGradient id="Path_394_1_" gradientUnits="userSpaceOnUse" x1="-17.2142" y1="53.9497" x2="-17.2142" y2="53.0718" gradientTransform="matrix(11.43 0 0 -72.71 470.645 3902.0493)">
			<stop  offset="0.003" style="stop-color:#DE1075"/>
			<stop  offset="0.106" style="stop-color:#D71378"/>
			<stop  offset="0.25" style="stop-color:#C51B7F"/>
			<stop  offset="0.42" style="stop-color:#A7288B"/>
			<stop  offset="0.608" style="stop-color:#7D3A9B"/>
			<stop  offset="0.655" style="stop-color:#713FA0"/>
			<stop  offset="0.768" style="stop-color:#5B41A8"/>
			<stop  offset="0.997" style="stop-color:#2545BC"/>
		</linearGradient>
		<path id="Path_394" fill="url(#Path_394_1_)" d="M268.872-20.536h10.025v63.777h-10.025V-20.536z"/>
		
			<linearGradient id="Path_395_1_" gradientUnits="userSpaceOnUse" x1="-25.6068" y1="53.9497" x2="-25.6068" y2="53.0718" gradientTransform="matrix(31.157 0 0 -72.708 1097.6803 3901.9487)">
			<stop  offset="0.003" style="stop-color:#DE1075"/>
			<stop  offset="0.106" style="stop-color:#D71378"/>
			<stop  offset="0.25" style="stop-color:#C51B7F"/>
			<stop  offset="0.42" style="stop-color:#A7288B"/>
			<stop  offset="0.608" style="stop-color:#7D3A9B"/>
			<stop  offset="0.655" style="stop-color:#713FA0"/>
			<stop  offset="0.768" style="stop-color:#5B41A8"/>
			<stop  offset="0.997" style="stop-color:#2545BC"/>
		</linearGradient>
		<path id="Path_395" fill="url(#Path_395_1_)" d="M296.2,6.347h13.752v9.104H296.2v18.673h17.305v9.104h-27.33v-63.771h27.33v9.104
			H296.2V6.347z"/>
		
			<linearGradient id="Path_396_1_" gradientUnits="userSpaceOnUse" x1="-26.4022" y1="53.9497" x2="-26.4022" y2="53.0718" gradientTransform="matrix(36.243 0 0 -72.708 1292.3898 3901.9429)">
			<stop  offset="0.003" style="stop-color:#DE1075"/>
			<stop  offset="0.106" style="stop-color:#D71378"/>
			<stop  offset="0.25" style="stop-color:#C51B7F"/>
			<stop  offset="0.42" style="stop-color:#A7288B"/>
			<stop  offset="0.608" style="stop-color:#7D3A9B"/>
			<stop  offset="0.655" style="stop-color:#713FA0"/>
			<stop  offset="0.768" style="stop-color:#5B41A8"/>
			<stop  offset="0.997" style="stop-color:#2545BC"/>
		</linearGradient>
		<path id="Path_396" fill="url(#Path_396_1_)" d="M328.634-2.956v46.183h-9.014v-63.771h12.566l10.289,38.172v-38.172h8.934v63.771
			h-10.291L328.634-2.956z"/>
		
			<linearGradient id="Path_397_1_" gradientUnits="userSpaceOnUse" x1="-26.309" y1="53.9946" x2="-26.309" y2="53.1167" gradientTransform="matrix(34.08 0 0 -74.385 1269.2941 3995.0747)">
			<stop  offset="0.003" style="stop-color:#DE1075"/>
			<stop  offset="0.106" style="stop-color:#D71378"/>
			<stop  offset="0.25" style="stop-color:#C51B7F"/>
			<stop  offset="0.42" style="stop-color:#A7288B"/>
			<stop  offset="0.608" style="stop-color:#7D3A9B"/>
			<stop  offset="0.655" style="stop-color:#713FA0"/>
			<stop  offset="0.768" style="stop-color:#5B41A8"/>
			<stop  offset="0.997" style="stop-color:#2545BC"/>
		</linearGradient>
		<path id="Path_397" fill="url(#Path_397_1_)" d="M387.657,19.462v8.475c0,10.198-5.104,16.037-14.945,16.037
			s-14.945-5.83-14.945-16.037V-5.232c0-10.197,5.104-16.038,14.945-16.038s14.945,5.83,14.945,16.038v6.196h-9.471v-6.828
			c0-4.552-2.002-6.289-5.197-6.289c-3.197,0-5.197,1.724-5.197,6.289v34.433c0,4.554,2,6.197,5.197,6.197
			c3.195,0,5.197-1.644,5.197-6.197v-9.106H387.657z"/>
		
			<linearGradient id="Path_398_1_" gradientUnits="userSpaceOnUse" x1="-26.0912" y1="53.9497" x2="-26.0912" y2="53.0718" gradientTransform="matrix(31.157 0 0 -72.708 1220.3522 3901.9487)">
			<stop  offset="0.003" style="stop-color:#DE1075"/>
			<stop  offset="0.106" style="stop-color:#D71378"/>
			<stop  offset="0.25" style="stop-color:#C51B7F"/>
			<stop  offset="0.42" style="stop-color:#A7288B"/>
			<stop  offset="0.608" style="stop-color:#7D3A9B"/>
			<stop  offset="0.655" style="stop-color:#713FA0"/>
			<stop  offset="0.768" style="stop-color:#5B41A8"/>
			<stop  offset="0.997" style="stop-color:#2545BC"/>
		</linearGradient>
		<path id="Path_398" fill="url(#Path_398_1_)" d="M403.788,6.347h13.752v9.104h-13.752v18.673h17.303v9.104h-27.328v-63.771h27.328
			v9.104h-17.303V6.347z"/>
	</g>
	<g id="Group_235" transform="translate(76.439 290.402)">
		<path id="Path_399" fill="none" stroke="#707070" stroke-width="0.25" stroke-miterlimit="10" d="M51.39,43.918H41.008
			l-1.781-11.883H26.602L24.82,43.911h-9.45l10.473-65.457h15.061L51.39,43.918z M27.912,23.151h9.912L32.869-9.96L27.912,23.151z"
			/>
		<path id="Path_400" fill="none" stroke="#707070" stroke-width="0.25" stroke-miterlimit="10" d="M77.669,43.916
			c-0.563-1.678-0.932-2.713-0.932-8.048V25.58c0-6.084-2.058-8.325-6.738-8.325h-3.552v26.65H56.161v-65.464h15.525
			c10.658,0,15.246,4.955,15.246,15.063v5.139c0,6.736-2.15,11.129-6.738,13.277c5.139,2.151,6.83,7.104,6.83,13.934V35.96
			c0,3.187,0.088,5.519,1.127,7.945H77.669V43.916z M66.441-12.201V7.908h4.025c3.84,0,6.174-1.678,6.174-6.921v-6.449
			c0-4.68-1.586-6.739-5.242-6.739H66.441L66.441-12.201z"/>
		<path id="Path_401" fill="none" stroke="#707070" stroke-width="0.25" stroke-miterlimit="10" d="M90.755-21.546h31.8v9.357
			h-10.761v56.117h-10.29v-56.117H90.743v-9.357H90.755z"/>
		<path id="Path_402" fill="none" stroke="#707070" stroke-width="0.25" stroke-miterlimit="10" d="M169.646,16.425
			c-3.885-1.643-5.679-5.149-5.679-10.76V4.698c0-8.369,4.034-12.921,12.255-12.921h9.417v7.471h-9.267
			c-2.609,0-4.185,1.347-4.185,5.083v3.208c0,4.185,1.862,5.527,4.932,5.527h3.588V7.242h8.22v5.83h2.161v7.472h-2.161v17.191
			c0,2.544,0.081,4.402,0.897,6.347h-8.37c-0.481-1.316-0.734-2.704-0.748-4.104c-1.425,3.058-3.955,4.701-7.623,4.701
			c-6.047,0-9.116-4.255-9.116-11.957v-5.299C163.967,22.108,165.611,18.22,169.646,16.425z M176.453,37.2
			c2.456,0,4.104-1.266,4.254-4.555V20.548h-3.138c-3.737,0-5.381,1.795-5.381,6.646v4.845c0,3.74,1.647,5.164,4.265,5.164V37.2z"/>
		<path id="Path_403" fill="none" stroke="#707070" stroke-width="0.25" stroke-miterlimit="10" d="M212.864-21.512
			c9.749,0,14.762,5.828,14.762,16.037v2.002h-9.473v-2.646c0-4.554-1.817-6.289-5.013-6.289s-5.013,1.727-5.013,6.289
			c0,13.118,19.59,15.581,19.59,33.802c0,10.198-5.105,16.037-14.935,16.037c-9.829,0-14.946-5.828-14.946-16.037v-3.921h9.474
			v4.555c0,4.552,2,6.194,5.196,6.194s5.198-1.643,5.198-6.194c0-13.12-19.591-15.581-19.591-33.804
			C198.113-15.684,203.125-21.512,212.864-21.512z"/>
		<path id="Path_404" fill="none" stroke="#707070" stroke-width="0.25" stroke-miterlimit="10" d="M140.341-21.512
			c9.749,0,14.762,5.828,14.762,16.037v2.002h-9.473v-2.646c0-4.554-1.816-6.289-5.012-6.289s-5.014,1.727-5.014,6.289
			c0,13.118,19.591,15.581,19.591,33.802c0,10.198-5.105,16.037-14.935,16.037c-9.83,0-14.946-5.828-14.946-16.037v-3.921h9.473
			v4.555c0,4.552,2,6.194,5.197,6.194s5.197-1.643,5.197-6.194c0-13.12-19.591-15.581-19.591-33.804
			C125.579-15.684,130.591-21.512,140.341-21.512z"/>
		<path id="Path_405" fill="none" stroke="#707070" stroke-width="0.25" stroke-miterlimit="10" d="M262.519,19.208v8.475
			c0,10.198-5.105,16.037-14.945,16.037c-9.844,0-14.947-5.828-14.947-16.037V-5.473c0-10.198,5.104-16.039,14.947-16.039
			c9.84,0,14.945,5.83,14.945,16.039v6.195h-9.473v-6.833c0-4.554-2.002-6.289-5.197-6.289c-3.197,0-5.197,1.727-5.197,6.289v34.433
			c0,4.554,2,6.197,5.197,6.197c3.195,0,5.197-1.644,5.197-6.197V19.22h9.473V19.208z"/>
		<path id="Path_406" fill="none" stroke="#707070" stroke-width="0.25" stroke-miterlimit="10" d="M268.624-20.788h10.023v63.773
			h-10.023V-20.788z"/>
		<path id="Path_407" fill="none" stroke="#707070" stroke-width="0.25" stroke-miterlimit="10" d="M295.95,6.092h13.752v9.106
			H295.95v18.671h17.303v9.105h-27.326v-63.773h27.326v9.104H295.95V6.092z"/>
		<path id="Path_408" fill="none" stroke="#707070" stroke-width="0.25" stroke-miterlimit="10" d="M328.372-3.21v46.185h-9.014
			v-63.773h12.566l10.291,38.169v-38.169h8.934v63.773h-10.291L328.372-3.21z"/>
		<path id="Path_409" fill="none" stroke="#707070" stroke-width="0.25" stroke-miterlimit="10" d="M387.409,19.208v8.475
			c0,10.198-5.105,16.037-14.947,16.037c-9.84,0-14.945-5.828-14.945-16.037V-5.473c0-10.198,5.105-16.039,14.945-16.039
			c9.842,0,14.947,5.83,14.947,16.039v6.195h-9.475v-6.833c0-4.554-1.998-6.289-5.195-6.289c-3.195,0-5.197,1.725-5.197,6.289
			v34.433c0,4.554,2.002,6.197,5.197,6.197c3.197,0,5.195-1.644,5.195-6.197V19.22h9.475V19.208z"/>
		<path id="Path_410" fill="none" stroke="#707070" stroke-width="0.25" stroke-miterlimit="10" d="M403.529,6.092h13.75v9.106
			h-13.75v18.671h17.303v9.105h-27.328v-63.773h27.328v9.104h-17.303V6.092z"/>
	</g>
	<g id="Group_238" transform="translate(42.53 88.352)">
		
			<image overflow="visible" opacity="0.138" enable-background="new    " width="1746" height="763" id="Rectangle_71" xlink:href="701328A0.png"  transform="matrix(0.264 0 0 0.2752 19.5366 3.2705)">
		</image>
		<g id="Group_237" transform="translate(35.443 35.519)">
			<g id="Group_236">
				
					<linearGradient id="Path_411_1_" gradientUnits="userSpaceOnUse" x1="-31.3839" y1="218.437" x2="-31.3839" y2="219.314" gradientTransform="matrix(70.649 0 0 -146.32 2263.4443 32090.4648)">
					<stop  offset="0.003" style="stop-color:#DD206A"/>
					<stop  offset="0.193" style="stop-color:#DF2769"/>
					<stop  offset="0.461" style="stop-color:#E33965"/>
					<stop  offset="0.774" style="stop-color:#EB575F"/>
					<stop  offset="0.996" style="stop-color:#F1715A"/>
				</linearGradient>
				<path id="Path_411" fill="url(#Path_411_1_)" d="M15.181,0.376h31.904c20.166,0,30.064,11.188,30.064,31.721v64.898
					c0,20.533-9.899,31.72-30.064,31.72H15.181V0.376z M35.347,18.715v91.675h11.37c6.416,0,10.267-3.299,10.267-12.462V31.189
					c0-9.163-3.852-12.463-10.267-12.463h-11.37V18.715z"/>
				
					<linearGradient id="Path_412_1_" gradientUnits="userSpaceOnUse" x1="-26.4074" y1="218.437" x2="-26.4074" y2="219.314" gradientTransform="matrix(22.991 0 0 -146.32 707.2082 32090.4648)">
					<stop  offset="0.003" style="stop-color:#DD206A"/>
					<stop  offset="0.193" style="stop-color:#DF2769"/>
					<stop  offset="0.461" style="stop-color:#E33965"/>
					<stop  offset="0.774" style="stop-color:#EB575F"/>
					<stop  offset="0.996" style="stop-color:#F1715A"/>
				</linearGradient>
				<path id="Path_412" fill="url(#Path_412_1_)" d="M89.981,0.376h20.166v128.339H89.981V0.376z"/>
				
					<linearGradient id="Path_413_1_" gradientUnits="userSpaceOnUse" x1="-31.5245" y1="218.4615" x2="-31.5245" y2="219.3384" gradientTransform="matrix(68.552 0 0 -149.674 2314.3081 32828.082)">
					<stop  offset="0.003" style="stop-color:#DD206A"/>
					<stop  offset="0.193" style="stop-color:#DF2769"/>
					<stop  offset="0.461" style="stop-color:#E33965"/>
					<stop  offset="0.774" style="stop-color:#EB575F"/>
					<stop  offset="0.996" style="stop-color:#F1715A"/>
				</linearGradient>
				<path id="Path_413" fill="url(#Path_413_1_)" d="M155.075,57.217h28.236v40.696c0,20.535-10.266,32.271-30.063,32.271
					c-19.798,0-30.064-11.736-30.064-32.271V31.177c0-20.533,10.266-32.271,30.064-32.271c19.797,0,30.063,11.738,30.063,32.271
					V43.64h-19.073V29.889c0-9.163-4.035-12.646-10.451-12.646c-6.416,0-10.45,3.484-10.45,12.646v69.304
					c0,9.164,4.034,12.463,10.45,12.463c6.417,0,10.451-3.299,10.451-12.463V75.543h-9.163V57.217z"/>
				
					<linearGradient id="Path_414_1_" gradientUnits="userSpaceOnUse" x1="-27.0553" y1="218.437" x2="-27.0553" y2="219.314" gradientTransform="matrix(22.991 0 0 -146.32 828.4426 32090.4648)">
					<stop  offset="0.003" style="stop-color:#DD206A"/>
					<stop  offset="0.193" style="stop-color:#DF2769"/>
					<stop  offset="0.461" style="stop-color:#E33965"/>
					<stop  offset="0.774" style="stop-color:#EB575F"/>
					<stop  offset="0.996" style="stop-color:#F1715A"/>
				</linearGradient>
				<path id="Path_414" fill="url(#Path_414_1_)" d="M196.326,0.376h20.167v128.339h-20.167V0.376z"/>
				
					<linearGradient id="Path_415_1_" gradientUnits="userSpaceOnUse" x1="-31.8136" y1="218.4361" x2="-31.8136" y2="219.314" gradientTransform="matrix(71.069 0 0 -146.319 2517.3931 32090.25)">
					<stop  offset="0.003" style="stop-color:#DD206A"/>
					<stop  offset="0.193" style="stop-color:#DF2769"/>
					<stop  offset="0.461" style="stop-color:#E33965"/>
					<stop  offset="0.774" style="stop-color:#EB575F"/>
					<stop  offset="0.996" style="stop-color:#F1715A"/>
				</linearGradient>
				<path id="Path_415" fill="url(#Path_415_1_)" d="M225.286,0.376h62.338v18.339h-21.086v110h-20.166v-110h-21.086V0.376z"/>
				
					<linearGradient id="Path_416_1_" gradientUnits="userSpaceOnUse" x1="-32.172" y1="218.437" x2="-32.172" y2="219.314" gradientTransform="matrix(80.48 0 0 -146.32 2908.6338 32090.4648)">
					<stop  offset="0.003" style="stop-color:#DD206A"/>
					<stop  offset="0.193" style="stop-color:#DF2769"/>
					<stop  offset="0.461" style="stop-color:#E33965"/>
					<stop  offset="0.774" style="stop-color:#EB575F"/>
					<stop  offset="0.996" style="stop-color:#F1715A"/>
				</linearGradient>
				<path id="Path_416" fill="url(#Path_416_1_)" d="M354.731,128.715h-20.35l-3.484-23.28h-24.75l-3.484,23.28h-18.523
					l20.535-128.34h29.512L354.731,128.715z M308.707,88.018h19.432l-9.713-64.899L308.707,88.018z"/>
				
					<linearGradient id="Path_417_1_" gradientUnits="userSpaceOnUse" x1="-31.7648" y1="218.437" x2="-31.7648" y2="219.314" gradientTransform="matrix(60.832 0 0 -146.32 2323.063 32090.4648)">
					<stop  offset="0.003" style="stop-color:#DD206A"/>
					<stop  offset="0.193" style="stop-color:#DF2769"/>
					<stop  offset="0.461" style="stop-color:#E33965"/>
					<stop  offset="0.774" style="stop-color:#EB575F"/>
					<stop  offset="0.996" style="stop-color:#F1715A"/>
				</linearGradient>
				<path id="Path_417" fill="url(#Path_417_1_)" d="M364.09,0.376h20.164v110.003h33.191v18.336H364.09V0.376z"/>
			</g>
		</g>
	</g>
	<g id="Group_239" transform="translate(81.328 126.492)">
		<path id="Path_418" fill="none" stroke="#707070" stroke-width="0.5" stroke-miterlimit="10" d="M14.769,0.054H46.67
			c20.166,0,30.063,11.187,30.063,31.721v64.899c0,20.533-9.898,31.721-30.063,31.721H14.769V0.054z M34.935,18.393v91.677h11.37
			c6.415,0,10.267-3.302,10.267-12.465V30.867c0-9.163-3.852-12.464-10.267-12.464h-11.37V18.393z"/>
		<path id="Path_419" fill="none" stroke="#707070" stroke-width="0.5" stroke-miterlimit="10" d="M89.579,0.054h20.167v128.341
			H89.579V0.054z"/>
		<path id="Path_420" fill="none" stroke="#707070" stroke-width="0.5" stroke-miterlimit="10" d="M154.663,56.895h28.236v40.697
			c0,20.533-10.267,32.272-30.063,32.272c-19.798,0-30.064-11.739-30.064-32.272V30.855c0-20.533,10.266-32.271,30.064-32.271
			c19.797,0,30.063,11.738,30.063,32.271v12.463h-19.073v-13.75c0-9.164-4.035-12.646-10.451-12.646
			c-6.416,0-10.45,3.483-10.45,12.646v69.303c0,9.163,4.034,12.462,10.45,12.462c6.417,0,10.451-3.299,10.451-12.462V75.221h-9.163
			V56.895z"/>
		<path id="Path_421" fill="none" stroke="#707070" stroke-width="0.5" stroke-miterlimit="10" d="M195.913,0.054h20.166v128.341
			h-20.166V0.054z"/>
		<path id="Path_422" fill="none" stroke="#707070" stroke-width="0.5" stroke-miterlimit="10" d="M224.886,0.054h62.336v18.339
			h-21.084v110.002h-20.166V18.393h-21.086V0.054z"/>
		<path id="Path_423" fill="none" stroke="#707070" stroke-width="0.5" stroke-miterlimit="10" d="M354.319,128.395h-20.35
			l-3.484-23.283h-24.754l-3.482,23.283h-18.521L304.261,0.054h29.512L354.319,128.395z M308.307,87.696h19.43l-9.713-64.899
			L308.307,87.696z"/>
		<path id="Path_424" fill="none" stroke="#707070" stroke-width="0.5" stroke-miterlimit="10" d="M363.677,0.054h20.166v110.003
			h33.191v18.338h-53.357V0.054z"/>
	</g>
</g>
</svg>
