<svg id="dc_cover" xmlns="http://www.w3.org/2000/svg" xmlns:xlink="http://www.w3.org/1999/xlink" width="408.672" height="573.348" viewBox="0 0 408.672 573.348">
  <defs>
    <linearGradient id="linear-gradient" y1="0.5" x2="1" y2="0.5" gradientUnits="objectBoundingBox">
      <stop offset="0" stop-color="#5761d6"/>
      <stop offset="0.069" stop-color="#5571d7"/>
      <stop offset="0.276" stop-color="#4e9bda"/>
      <stop offset="0.478" stop-color="#49bcdc"/>
      <stop offset="0.67" stop-color="#45d4de"/>
      <stop offset="0.849" stop-color="#43e2df"/>
      <stop offset="1" stop-color="#42e7df"/>
    </linearGradient>
    <linearGradient id="linear-gradient-3" x1="0" y1="0.5" x2="1" y2="0.5" xlink:href="#linear-gradient"/>
    <linearGradient id="linear-gradient-4" x1="-59.6" y1="-7.904" x2="-58.445" y2="-7.904" gradientUnits="objectBoundingBox">
      <stop offset="0" stop-color="#d91c5c"/>
      <stop offset="0.072" stop-color="#b7195c"/>
      <stop offset="0.177" stop-color="#8d165c"/>
      <stop offset="0.288" stop-color="#69135b"/>
      <stop offset="0.403" stop-color="#4c115b"/>
      <stop offset="0.525" stop-color="#350f5b"/>
      <stop offset="0.656" stop-color="#250e5b"/>
      <stop offset="0.803" stop-color="#1b0d5b"/>
      <stop offset="1" stop-color="#180d5b"/>
    </linearGradient>
    <linearGradient id="linear-gradient-5" x1="-59.474" y1="-7.895" x2="-58.32" y2="-7.895" gradientUnits="objectBoundingBox">
      <stop offset="0" stop-color="#ed2a7b"/>
      <stop offset="0.008" stop-color="#e9297a"/>
      <stop offset="0.105" stop-color="#b82373"/>
      <stop offset="0.208" stop-color="#8d1d6d"/>
      <stop offset="0.315" stop-color="#691867"/>
      <stop offset="0.426" stop-color="#4c1463"/>
      <stop offset="0.543" stop-color="#35115f"/>
      <stop offset="0.669" stop-color="#250f5d"/>
      <stop offset="0.811" stop-color="#1b0d5b"/>
      <stop offset="1" stop-color="#180d5b"/>
    </linearGradient>
    <linearGradient id="linear-gradient-6" x1="-59.349" y1="-7.887" x2="-58.195" y2="-7.887" xlink:href="#linear-gradient-5"/>
    <linearGradient id="linear-gradient-7" x1="-45.829" y1="1" x2="-45.829" gradientUnits="objectBoundingBox">
      <stop offset="0" stop-color="#5761d6"/>
      <stop offset="0.179" stop-color="#5c66d8"/>
      <stop offset="0.39" stop-color="#6a73de"/>
      <stop offset="0.617" stop-color="#8289e8"/>
      <stop offset="0.854" stop-color="#a3a7f5"/>
      <stop offset="1" stop-color="#bbbdff"/>
    </linearGradient>
    <linearGradient id="linear-gradient-8" x1="-156.455" y1="1" x2="-156.455" gradientUnits="objectBoundingBox">
      <stop offset="0" stop-color="#bfbef5"/>
      <stop offset="0.294" stop-color="#c4c3f6"/>
      <stop offset="0.64" stop-color="#d2d1f8"/>
      <stop offset="1" stop-color="#e8e8fc"/>
    </linearGradient>
    <linearGradient id="linear-gradient-9" x1="-58.39" y1="-7.513" x2="-58.39" y2="-8.206" xlink:href="#linear-gradient-8"/>
    <linearGradient id="linear-gradient-10" x1="0.073" y1="0.287" x2="1.708" y2="1.102" gradientUnits="objectBoundingBox">
      <stop offset="0" stop-color="#662d90"/>
      <stop offset="0.433" stop-color="#262262"/>
    </linearGradient>
    <linearGradient id="linear-gradient-11" x1="0.706" y1="6.209" x2="0.426" y2="5.378" gradientUnits="objectBoundingBox">
      <stop offset="0" stop-color="#fff" stop-opacity="0.749"/>
      <stop offset="1" stop-color="#fff" stop-opacity="0"/>
    </linearGradient>
    <linearGradient id="linear-gradient-12" x1="0.452" y1="9.752" x2="0.601" y2="10.452" gradientUnits="objectBoundingBox">
      <stop offset="0" stop-color="#fff"/>
      <stop offset="1" stop-color="#fff" stop-opacity="0"/>
    </linearGradient>
    <linearGradient id="linear-gradient-13" x1="0.362" y1="27.452" x2="0.647" y2="28.034" xlink:href="#linear-gradient-12"/>
    <linearGradient id="linear-gradient-14" x1="-141.285" y1="-85.869" x2="-140.131" y2="-85.869" xlink:href="#linear-gradient-7"/>
    <radialGradient id="radial-gradient" cx="0.765" cy="0.34" fx="0.31500276923179626" fy="0.17063291370868683" r="0.51" gradientTransform="matrix(-0.936, 0, 0, 1, -226.606, 0)" gradientUnits="objectBoundingBox">
      <stop offset="0" stop-color="#2b237c"/>
      <stop offset="1" stop-color="#180d5b"/>
    </radialGradient>
    <linearGradient id="linear-gradient-15" x1="-101.912" y1="0.5" x2="-100.912" y2="0.5" xlink:href="#linear-gradient-7"/>
    <linearGradient id="linear-gradient-16" x1="-140.868" y1="-85.771" x2="-139.713" y2="-85.771" xlink:href="#linear-gradient-8"/>
    <linearGradient id="linear-gradient-17" x1="-213.701" y1="-127.339" x2="-212.546" y2="-127.339" xlink:href="#linear-gradient-7"/>
    <radialGradient id="radial-gradient-2" cx="0.765" cy="0.34" fx="0.315076619386673" fy="0.17037631571292877" r="0.509" gradientTransform="matrix(-0.936, 0, 0, 1, -344.593, 0)" xlink:href="#radial-gradient"/>
    <linearGradient id="linear-gradient-18" x1="-154.921" y1="0.5" x2="-153.921" y2="0.5" xlink:href="#linear-gradient-7"/>
    <linearGradient id="linear-gradient-19" x1="-213.284" y1="-127.24" x2="-212.129" y2="-127.24" xlink:href="#linear-gradient-8"/>
  </defs>
  <g id="Group_179" data-name="Group 179" transform="translate(0 341.697)">
    <g id="Group_178" data-name="Group 178">
      <g id="Group_176" data-name="Group 176" opacity="0.11">
        <path id="Path_280" data-name="Path 280" d="M289.909,238.572a31.335,31.335,0,0,0-31.311-.018L71.994,346.058a4.4,4.4,0,0,0,0,7.628L260.16,462.324a27.665,27.665,0,0,0,27.639,0l188.45-108.532a4.4,4.4,0,0,0,0-7.628Z" transform="translate(-69.785 -234.372)" fill="url(#linear-gradient)"/>
      </g>
      <g id="Group_177" data-name="Group 177" opacity="0.11">
        <path id="Path_281" data-name="Path 281" d="M289.909,238.572a31.335,31.335,0,0,0-31.311-.018L71.994,346.058a4.4,4.4,0,0,0,0,7.628L260.16,462.324a27.665,27.665,0,0,0,27.639,0l188.45-108.532a4.4,4.4,0,0,0,0-7.628Z" transform="translate(-69.785 -234.372)" fill="url(#linear-gradient)"/>
      </g>
      <path id="Path_282" data-name="Path 282" d="M476.226,300.006,287.776,408.538a27.665,27.665,0,0,1-27.639,0L71.989,299.9a4.406,4.406,0,0,1-1.632-1.65,4.4,4.4,0,0,0,1.632,5.978L260.155,412.867a27.665,27.665,0,0,0,27.639,0l188.45-108.532a4.4,4.4,0,0,0,1.632-5.978A4.593,4.593,0,0,1,476.226,300.006Z" transform="translate(-69.781 -184.932)" fill="url(#linear-gradient-3)"/>
    </g>
  </g>
  <g id="Group_196" data-name="Group 196" transform="translate(86.934 106.058)">
    <g id="Group_195" data-name="Group 195">
      <g id="Group_191" data-name="Group 191" transform="translate(12.471)">
        <g id="Group_190" data-name="Group 190">
          <g id="Group_189" data-name="Group 189">
            <g id="Group_188" data-name="Group 188">
              <g id="Group_187" data-name="Group 187">
                <g id="Group_186" data-name="Group 186">
                  <g id="Group_185" data-name="Group 185">
                    <path id="Path_283" data-name="Path 283" d="M153.15,419.915l135.461,78.2c2.04,1.171,3.69-.071,3.69-2.785V187.222c0-2.714-1.65-5.872-3.69-7.043l-135.461-78.2c-2.04-1.171-3.69.071-3.69,2.785v308.1C149.478,415.587,151.127,418.726,153.15,419.915Z" transform="translate(-107.523 -101.542)" opacity="0.2" fill="url(#linear-gradient-4)"/>
                    <path id="Path_284" data-name="Path 284" d="M148.47,422.8l135.461,78.2c2.04,1.171,3.69-.071,3.69-2.785V190.1c0-2.714-1.65-5.872-3.69-7.043l-135.461-78.2c-2.04-1.171-3.69.071-3.69,2.785v308.1C144.78,418.467,146.43,421.624,148.47,422.8Z" transform="translate(-111.145 -99.313)" opacity="0.4" fill="url(#linear-gradient-5)"/>
                    <path id="Path_285" data-name="Path 285" d="M143.79,425.675l135.461,78.2c2.04,1.171,3.69-.071,3.69-2.785v-308.1c0-2.714-1.65-5.872-3.69-7.043l-135.461-78.2c-2.04-1.171-3.69.071-3.69,2.785v308.1C140.1,421.346,141.75,424.5,143.79,425.675Z" transform="translate(-114.767 -97.083)" opacity="0.6" fill="url(#linear-gradient-6)"/>
                    <path id="Path_286" data-name="Path 286" d="M126.53,119.908l15.735-9.047v.035a2.333,2.333,0,0,1,2.324.213l135.443,78.2c2.04,1.171,3.69,4.329,3.69,7.043v308.1a3.193,3.193,0,0,1-1.313,2.963l.018.018-15.717,9.047-.355-17.137-121.8-70.321c-2.04-1.171-3.69-4.329-3.69-7.043V128c-.319.993-.55,1.721-.585,1.756C140.19,129.824,126.53,119.908,126.53,119.908Z" transform="translate(-125.27 -94.472)" fill="url(#linear-gradient-7)"/>
                    <path id="Path_287" data-name="Path 287" d="M235.639,160.706l-40.926,23.629-6.173-3.566,44.172-25.51A9.223,9.223,0,0,1,235.639,160.706Z" transform="translate(-77.276 -59.965)" fill="url(#linear-gradient-8)"/>
                    <path id="Path_288" data-name="Path 288" d="M129.51,434.115l135.461,78.2c2.04,1.171,3.69-.071,3.69-2.785v-308.1c0-2.714-1.65-5.872-3.69-7.043l-135.461-78.2c-2.04-1.171-3.69.071-3.69,2.785V427.072C125.82,429.787,127.47,432.944,129.51,434.115Z" transform="translate(-125.82 -90.551)" fill="url(#linear-gradient-9)"/>
                    <path id="Path_289" data-name="Path 289" d="M125.82,401.442l142.823,82.472V209.532L125.82,127.06Z" transform="translate(-125.82 -81.791)" fill="#24126a"/>
                    <path id="Path_290" data-name="Path 290" d="M125.82,401.442l142.823,82.472V209.532L125.82,127.06Z" transform="translate(-125.82 -81.791)" fill="#24126a"/>
                    <g id="Group_180" data-name="Group 180" transform="translate(0 46.493)">
                      <path id="Path_291" data-name="Path 291" d="M125.82,399.719l142.823,82.472V210.222L125.82,127.75Z" transform="translate(-125.82 -127.75)" fill="url(#linear-gradient-10)"/>
                    </g>
                    <g id="Group_182" data-name="Group 182" transform="translate(60.599 68.635)">
                      <g id="Group_181" data-name="Group 181" transform="translate(0.514 0.065)">
                        <path id="Path_292" data-name="Path 292" d="M161.494,144.192l21.359,12.382c.621.355,1.153.461,1.384-.124a2.143,2.143,0,0,0,.124-.727h0a3.642,3.642,0,0,0-1.508-2.892L161.263,140.36c-.071-.035-.124-.106-.2-.089-.674.2-.8.319-.8,1.348l.089.284A2.311,2.311,0,0,0,161.494,144.192Z" transform="translate(-160.27 -140.268)" fill="#5761d6"/>
                      </g>
                      <path id="Path_293" data-name="Path 293" d="M161.293,140.317a2.115,2.115,0,0,0-.124.71,3.642,3.642,0,0,0,1.508,2.892l21.589,12.471c.071.035.124.053.2.089a.878.878,0,0,1-1.384.426l-21.589-12.471a3.615,3.615,0,0,1-1.508-2.892C159.98,140.53,160.565,140.016,161.293,140.317Z" transform="translate(-159.98 -140.232)" fill="#bbbdff"/>
                    </g>
                    <g id="Group_183" data-name="Group 183" transform="translate(149.174 136.048)">
                      <path id="Path_294" data-name="Path 294" d="M211.9,178.53l.3-.124a1.673,1.673,0,0,1,1.26-.089V178.3l1.118.479-.55.035a1.447,1.447,0,0,1,.16.71v13.323a3.391,3.391,0,0,1-1.987,2.821l-.3.124a1.794,1.794,0,0,1-.408.124l.284.444-1.189-.514h.018a1.186,1.186,0,0,1-.692-1.189V181.332A3.459,3.459,0,0,1,211.9,178.53Z" transform="translate(-209.91 -178.232)" fill="#e8e8fc"/>
                      <path id="Path_295" data-name="Path 295" d="M212.527,196.063l.3-.124a3.414,3.414,0,0,0,1.987-2.821V179.8c0-1.082-.887-1.6-1.987-1.118l-.3.124a3.414,3.414,0,0,0-1.987,2.821v13.323C210.558,196.028,211.445,196.542,212.527,196.063Z" transform="translate(-209.422 -178.026)" fill="#bbbdff"/>
                    </g>
                    <g id="Group_184" data-name="Group 184" transform="translate(149.174 156.378)">
                      <path id="Path_296" data-name="Path 296" d="M211.9,189.99l.3-.124a1.673,1.673,0,0,1,1.26-.089v-.018l1.118.479-.55.035a1.448,1.448,0,0,1,.16.71v13.323a3.391,3.391,0,0,1-1.987,2.821l-.3.124a1.794,1.794,0,0,1-.408.124l.284.443-1.189-.514h.018a1.186,1.186,0,0,1-.692-1.189V192.793A3.459,3.459,0,0,1,211.9,189.99Z" transform="translate(-209.91 -189.692)" fill="#e8e8fc"/>
                      <path id="Path_297" data-name="Path 297" d="M212.527,207.523l.3-.124a3.414,3.414,0,0,0,1.987-2.821V191.256c0-1.082-.887-1.6-1.987-1.118l-.3.124a3.414,3.414,0,0,0-1.987,2.821v13.323C210.558,207.488,211.445,207.985,212.527,207.523Z" transform="translate(-209.422 -189.486)" fill="#bbbdff"/>
                    </g>
                  </g>
                </g>
              </g>
            </g>
          </g>
        </g>
      </g>
      <g id="Group_194" data-name="Group 194" transform="translate(0 55.787)">
        <path id="Path_298" data-name="Path 298" d="M236.458,446.666l-108.3-61.327c-5.18-2.927-9.367-9.42-9.367-14.493V138.3c0-5.074,4.2-6.812,9.367-3.885l108.3,61.327c5.18,2.927,9.367,9.42,9.367,14.493V442.781C245.825,447.872,241.638,449.611,236.458,446.666Z" transform="translate(-118.79 -132.989)" stroke="#fff" stroke-miterlimit="10" stroke-width="1" fill="url(#linear-gradient-11)"/>
        <path id="Path_299" data-name="Path 299" d="M168.29,163.454l4.9,2.767c1.029.745,2.076,1.472,3.1,2.235C191.015,179.261,201,193.08,206.2,209.7c1.135,3.637,1.455,7.1,2.147,10.644v5.375c-.16.745-.337,1.455-.461,2.217-3.033,18.822-22.991,21.589-43.711,6.067-19.088-14.3-32.127-38.513-30.548-56.661,1.206-13.7,11.318-20.649,25.3-17.154C161.957,160.935,165.168,162.337,168.29,163.454Zm29.892,73.833c9.4-5.854,10.431-25.261-3.566-46.461-13.784-20.88-35.746-32.73-49.015-26.2-12.7,6.244-10.874,26.415-1.987,41.795.834-.993,1.668-2.022,2.519-2.98,1.153-1.277,2.466-2.342,4.666-1.951,3.353.568,6.723,1.206,10.023,1.809.408,3.051.834,6.227,1.313,9.686,1.756-.869,2.679-2.838,5.553-.745-1.206-2.732-2.555-5.482-3.619-8.214-.639-1.632-.745-3.211-1.313-4.843-.763-2.2-1.934-4.47-2.626-6.635-.656-2.04-1.472-4.435-1.171-5.89a10.324,10.324,0,0,0,.177-3.938c-1.011-6.635,1.863-8.834,7.273-8.622a3.444,3.444,0,0,1,1.614.745c1.047.781,1.969,1.455,2.643.745.213-.231.727-.106,1.295-.16.852,2.838,2.874,4.453,4.861,6.227,4.382,3.885,6.706,8.054,6.9,12.453a30.235,30.235,0,0,1-.5,4.47,10.749,10.749,0,0,0,.053,1.49,10.479,10.479,0,0,1,.053,1.951c-.532,2.679-2.111,4.311-3.761,5.872a2.716,2.716,0,0,0-.692.958,10.463,10.463,0,0,1-.887,2.413c-1.189,1.561-2.537,2.945-3.85,4.417,2.821,1.26,3.832,4.187,5.517,7.1.479-2.892.922-5.5,1.33-7.947,3.087,2.927,6.244,5.907,9.4,8.905a18.673,18.673,0,0,1,4.24,5.836C195.858,232.125,197.028,234.715,198.181,237.288Z" transform="translate(-107.407 -112.628)" fill="url(#linear-gradient-12)"/>
        <path id="Path_300" data-name="Path 300" d="M226.307,281.324,129.128,226.3c-2.785-1.579-5.038-5.074-5.038-7.806V194.647c0-2.732,2.253-3.672,5.038-2.093l97.179,55.029c2.785,1.579,5.038,5.074,5.038,7.805v23.842C231.345,281.963,229.092,282.9,226.307,281.324Z" transform="translate(-114.688 -87.479)" fill="none" stroke="#fff" stroke-miterlimit="10" stroke-width="1"/>
        <path id="Path_301" data-name="Path 301" d="M147.826,253.58l-18.7-10.591c-2.785-1.579-5.038-5.074-5.038-7.805V217.178c0-2.732,2.253-3.672,5.038-2.093l18.7,10.591c2.785,1.579,5.038,5.074,5.038,7.805v18.006C152.864,254.218,150.611,255.158,147.826,253.58Z" transform="translate(-114.688 -70.041)" fill="none" stroke="#fff" stroke-miterlimit="10" stroke-width="1"/>
        <path id="Path_302" data-name="Path 302" d="M169.946,266.11l-18.7-10.591c-2.785-1.579-5.038-5.074-5.038-7.806V229.707c0-2.732,2.253-3.672,5.038-2.093l18.7,10.591c2.785,1.579,5.038,5.074,5.038,7.805v18.006C174.984,266.748,172.731,267.688,169.946,266.11Z" transform="translate(-97.567 -60.343)" fill="none" stroke="#fff" stroke-miterlimit="10" stroke-width="1"/>
        <path id="Path_303" data-name="Path 303" d="M192.066,278.63l-18.7-10.591c-2.785-1.579-5.038-5.074-5.038-7.805V242.228c0-2.732,2.253-3.672,5.038-2.093l18.7,10.591c2.785,1.579,5.038,5.074,5.038,7.806v18.006C197.1,279.268,194.851,280.208,192.066,278.63Z" transform="translate(-80.447 -50.653)" fill="none" stroke="#fff" stroke-miterlimit="10" stroke-width="1"/>
        <path id="Path_304" data-name="Path 304" d="M147.826,275.09l-18.7-10.591c-2.785-1.579-5.038-5.074-5.038-7.805V238.687c0-2.732,2.253-3.672,5.038-2.093l18.7,10.591c2.785,1.579,5.038,5.074,5.038,7.805V273C152.864,275.728,150.611,276.668,147.826,275.09Z" transform="translate(-114.688 -53.393)" fill="none" stroke="#fff" stroke-miterlimit="10" stroke-width="1"/>
        <path id="Path_305" data-name="Path 305" d="M169.946,287.61l-18.7-10.591c-2.785-1.579-5.038-5.074-5.038-7.805V251.208c0-2.732,2.253-3.672,5.038-2.093l18.7,10.591c2.785,1.579,5.038,5.074,5.038,7.806v18.006C174.984,288.248,172.731,289.188,169.946,287.61Z" transform="translate(-97.567 -43.703)" fill="none" stroke="#fff" stroke-miterlimit="10" stroke-width="1"/>
        <path id="Path_306" data-name="Path 306" d="M192.066,300.14l-18.7-10.591c-2.785-1.579-5.038-5.074-5.038-7.806V263.738c0-2.732,2.253-3.672,5.038-2.093l18.7,10.591c2.785,1.579,5.038,5.074,5.038,7.805v18.006C197.1,300.778,194.851,301.719,192.066,300.14Z" transform="translate(-80.447 -34.005)" fill="none" stroke="#fff" stroke-miterlimit="10" stroke-width="1"/>
        <path id="Path_307" data-name="Path 307" d="M153.715,230.2l8.781-3.637c.39-.16.39-.781,0-1.366l-8.781-13.589c-.621-.958-1.685-1.135-1.685-.266v17.243C152.03,229.422,153.094,230.451,153.715,230.2Z" transform="translate(-93.063 -72.777)" fill="none" stroke="#fff" stroke-miterlimit="10" stroke-width="1"/>
        <path id="Path_308" data-name="Path 308" d="M171.381,234.893l5.286-2.182c.231-.089.231-.461,0-.816l-5.286-8.178c-.373-.585-1.011-.674-1.011-.16v10.36C170.37,234.432,171.009,235.053,171.381,234.893Z" transform="translate(-78.868 -63.152)" fill="none" stroke="#fff" stroke-miterlimit="10" stroke-width="1"/>
        <path id="Path_309" data-name="Path 309" d="M175.351,237.143l5.286-2.182c.231-.089.231-.461,0-.816l-5.286-8.178c-.373-.585-1.011-.674-1.011-.16v10.36C174.34,236.682,174.979,237.3,175.351,237.143Z" transform="translate(-75.795 -61.41)" fill="none" stroke="#fff" stroke-miterlimit="10" stroke-width="1"/>
        <path id="Path_310" data-name="Path 310" d="M140.4,204.871l-5.286,2.182c-.231.089-.231.461,0,.816l5.286,8.178c.373.585,1.011.674,1.011.16v-10.36C141.413,205.332,140.774,204.711,140.4,204.871Z" transform="translate(-106.288 -77.373)" fill="none" stroke="#fff" stroke-miterlimit="10" stroke-width="1"/>
        <path id="Path_311" data-name="Path 311" d="M136.432,202.621l-5.286,2.182c-.231.089-.231.461,0,.816l5.286,8.178c.373.585,1.011.674,1.011.16V203.6C137.443,203.082,136.8,202.461,136.432,202.621Z" transform="translate(-109.361 -79.114)" fill="none" stroke="#fff" stroke-miterlimit="10" stroke-width="1"/>
        <path id="Path_312" data-name="Path 312" d="M173.242,293.459c0,7.043-5.819,9.473-13.021,5.393-7.185-4.062-13.021-13.092-13.021-20.135s5.819-9.473,13.021-5.393C167.423,277.386,173.242,286.416,173.242,293.459Z" transform="translate(-96.801 -25.905)" fill="url(#linear-gradient-13)"/>
        <path id="Path_313" data-name="Path 313" d="M156.206,234.02c-2.5-1.419-4.506-.568-4.506,1.863l4.453,12.489,4.577-7.38C160.712,238.562,158.689,235.439,156.206,234.02Z" transform="translate(-93.318 -55.325)" fill="#fff"/>
        <path id="Path_314" data-name="Path 314" d="M178.545,247.82l1.49,3.8,3.317,2.359-2.395.94.568,3.566-2.98-3.211-2.98-.16.568-2.927-2.413-3.672,3.335,1.419Z" transform="translate(-76.275 -44.111)" fill="#fff"/>
        <path id="Path_315" data-name="Path 315" d="M185.014,278.679c0-.071.018-.142.018-.231s-.018-.16-.018-.248l-.674-.479a5.37,5.37,0,0,0-.16-1.029l.6.035c-.036-.177-.089-.355-.142-.532l-.674-.266a8.39,8.39,0,0,0-.443-1.1l.479-.2c-.089-.177-.177-.355-.284-.532l-.6-.035a10.967,10.967,0,0,0-.692-1.064l.3-.408c-.124-.16-.248-.337-.39-.5l-.479.2a10.69,10.69,0,0,0-.869-.922l.106-.585c-.142-.142-.3-.266-.461-.408l-.3.426q-.479-.373-.958-.692l-.106-.71c-.089-.053-.16-.106-.231-.142-.089-.053-.16-.089-.231-.124l-.106.6a6.816,6.816,0,0,0-.958-.39l-.3-.763a2.167,2.167,0,0,0-.461-.106l.106.71a3.689,3.689,0,0,0-.869-.053l-.479-.745-.39.053.3.763a2.985,2.985,0,0,0-.692.284l-.6-.639c-.106.071-.2.142-.284.213l.479.745a2.524,2.524,0,0,0-.443.6l-.674-.479a2.115,2.115,0,0,0-.142.355l.6.639a6.044,6.044,0,0,0-.16.852l-.674-.284c0,.071-.018.142-.018.231s.018.16.018.248l.674.479a5.371,5.371,0,0,0,.16,1.029l-.6-.035c.036.177.089.355.142.532l.674.266a8.379,8.379,0,0,0,.443,1.1l-.479.2c.089.177.177.355.284.532l.6.035a10.961,10.961,0,0,0,.692,1.064l-.3.408c.124.16.248.337.39.5l.479-.2a10.7,10.7,0,0,0,.869.922l-.106.585c.142.142.3.266.461.408l.3-.426q.479.373.958.692l.106.71c.089.053.16.106.231.142.089.053.16.089.231.124l.106-.6a6.812,6.812,0,0,0,.958.39l.3.763a2.166,2.166,0,0,0,.461.106l-.106-.71a3.688,3.688,0,0,0,.869.053l.479.745.39-.053-.3-.763a2.985,2.985,0,0,0,.692-.284l.6.639c.106-.071.2-.142.284-.213l-.479-.745a2.525,2.525,0,0,0,.443-.6l.674.479a2.117,2.117,0,0,0,.142-.355l-.6-.639a6.045,6.045,0,0,0,.16-.852Zm-5.943-.053a7.381,7.381,0,0,1-3.619-5.588c0-1.951,1.614-2.626,3.619-1.49a7.381,7.381,0,0,1,3.619,5.588C182.673,279.087,181.058,279.743,179.071,278.626Z" transform="translate(-76.801 -28.191)" fill="#fff"/>
        <path id="Path_316" data-name="Path 316" d="M129.19,223.893c.036-1.4.461-2.129,1.419-2.324.16-.035.284-.089.443-.124.39-.071.816.177,1.153.727a10.46,10.46,0,0,1,1.277,2.767c.142.55.018.869-.355.976a4.87,4.87,0,0,1-.692.16c-.319.053-.461.284-.373.745a7.058,7.058,0,0,0,.781,1.88,16.617,16.617,0,0,0,1.951,2.945c.408.461.94.834,1.348.6a2.309,2.309,0,0,1,.621-.2c.39-.106.834.106,1.277.585a12.589,12.589,0,0,1,1.809,2.519c.337.585.284.94-.089,1.1a2.827,2.827,0,0,1-2.235.053,8.553,8.553,0,0,1-3.246-2.519,25.274,25.274,0,0,1-3.069-4.506,17.153,17.153,0,0,1-1.738-3.974A10.849,10.849,0,0,1,129.19,223.893Z" transform="translate(-110.741 -64.534)" fill="#fff"/>
        <g id="Group_192" data-name="Group 192" transform="translate(21.695 195.777)">
          <path id="Path_317" data-name="Path 317" d="M135.65,245.621,135.3,246.7a15.789,15.789,0,0,0-1.7-1.242c-.355-.2-.94-.514-.94.036v1.366l1.987,1.118v1.508l-1.987-1.118v7.681l-1.632-.922V244.539c-.035-1.543,1.189-1.384,2.484-.656A12.151,12.151,0,0,1,135.65,245.621Z" transform="translate(-131.02 -243.349)" fill="#fff"/>
        </g>
        <g id="Group_193" data-name="Group 193" transform="translate(57.442 218.356)">
          <path id="Path_318" data-name="Path 318" d="M160.288,264.793l1.064.6a2.148,2.148,0,0,0-.018.337.735.735,0,0,1-.053.284,3.4,3.4,0,0,1-.568,1.49,2.213,2.213,0,0,1-1.118.851,3.033,3.033,0,0,1-1.561.124,5.435,5.435,0,0,1-1.774-.656,8.486,8.486,0,0,1-1.969-1.543,12.413,12.413,0,0,1-1.614-2.093,11.5,11.5,0,0,1-1.1-2.377,7.7,7.7,0,0,1-.408-2.377,4.047,4.047,0,0,1,.408-1.934,2.528,2.528,0,0,1,1.1-1.135,2.675,2.675,0,0,1,1.614-.266,4.788,4.788,0,0,1,1.969.692,9.263,9.263,0,0,1,1.934,1.49,12.425,12.425,0,0,1,1.65,2.111,10.688,10.688,0,0,1,1.384,3.388l-1.011-.2a8.262,8.262,0,0,0-1.135-2.8,8.56,8.56,0,0,0-1.295-1.668,7.249,7.249,0,0,0-1.526-1.189,4.112,4.112,0,0,0-1.579-.55,2.324,2.324,0,0,0-1.277.213,2.046,2.046,0,0,0-.869.9,3.292,3.292,0,0,0-.319,1.526,5.98,5.98,0,0,0,.319,1.88,8.978,8.978,0,0,0,.869,1.88,9.882,9.882,0,0,0,1.277,1.668,6.957,6.957,0,0,0,1.579,1.242,4.9,4.9,0,0,0,1.4.532,2.612,2.612,0,0,0,1.242-.071,2.215,2.215,0,0,0,1.206-1.313l-4.577-2.59V262.1l1.6.9Z" transform="translate(-151.17 -256.077)" fill="#fff"/>
        </g>
      </g>
    </g>
  </g>
  <g id="Group_199" data-name="Group 199" transform="translate(42.23 28.296)">
    <g id="Group_198" data-name="Group 198">
      <g id="Group_197" data-name="Group 197">
        <path id="Path_319" data-name="Path 319" d="M109.939,59.859a17.566,17.566,0,0,1,4.275,3.6c1.792-5.748,7.238-7.522,13.7-3.8,5.34,3.087,9.987,9.154,12.453,15.576a5.849,5.849,0,0,1,2.7.852,13.955,13.955,0,0,1,6.315,10.928,1.17,1.17,0,0,1-.018.248,7.785,7.785,0,0,1,3.246,1.082c4.453,2.572,8.072,8.834,8.072,13.979s-3.619,7.238-8.072,4.666L109.939,82.371c-5.375-3.1-9.739-10.662-9.739-16.871C100.2,59.273,104.546,56.754,109.939,59.859Z" transform="translate(-88.474 -57.707)" fill="url(#linear-gradient-14)"/>
        <path id="Path_320" data-name="Path 320" d="M109.939,59.857a15.745,15.745,0,0,1,2.555,1.88l4.772-2.75h0c2.626-1.845,6.422-1.756,10.644.674,5.34,3.087,9.988,9.154,12.453,15.576a5.849,5.849,0,0,1,2.7.852,13.955,13.955,0,0,1,6.315,10.928,1.169,1.169,0,0,1-.018.248,7.785,7.785,0,0,1,3.246,1.082c4.453,2.572,8.072,8.834,8.072,13.979,0,2.555-.887,4.346-2.324,5.2h0l-.035.018h0l-11.691,6.777-2.555-12.276L109.939,82.334c-5.375-3.1-9.739-10.662-9.739-16.871C100.2,59.272,104.546,56.753,109.939,59.857Z" transform="translate(-88.474 -57.705)" fill="url(#radial-gradient)"/>
        <path id="Path_321" data-name="Path 321" d="M95.1,66.084,106.932,59.2h0c1.774-1.047,4.222-.922,6.936.656a15.745,15.745,0,0,1,2.555,1.88l4.772-2.75h0c2.626-1.845,6.422-1.756,10.644.674,5.34,3.087,9.988,9.154,12.453,15.576a5.849,5.849,0,0,1,2.7.852A13.955,13.955,0,0,1,153.3,87.017a1.172,1.172,0,0,1-.018.248,7.785,7.785,0,0,1,3.246,1.082c4.453,2.572,8.072,8.834,8.072,13.979,0,2.555-.887,4.346-2.324,5.2h0l-.035.018h0l-11.691,6.777L148,102.043,113.869,82.334c-4.364-2.519-8.054-7.965-9.3-13.234Z" transform="translate(-92.421 -57.705)" fill="url(#linear-gradient-15)"/>
        <path id="Path_322" data-name="Path 322" d="M103.329,63.7a17.566,17.566,0,0,1,4.275,3.6c1.792-5.748,7.238-7.522,13.7-3.8,5.34,3.087,9.988,9.154,12.453,15.576a5.849,5.849,0,0,1,2.7.852,13.955,13.955,0,0,1,6.315,10.928,1.17,1.17,0,0,1-.018.248,7.785,7.785,0,0,1,3.246,1.082c4.453,2.572,8.072,8.834,8.072,13.979s-3.619,7.238-8.072,4.666L103.329,86.193c-5.375-3.1-9.739-10.662-9.739-16.871S97.954,60.594,103.329,63.7Z" transform="translate(-93.59 -54.735)" fill="url(#linear-gradient-16)"/>
      </g>
    </g>
  </g>
  <g id="Group_202" data-name="Group 202" transform="translate(205.968 0)">
    <g id="Group_201" data-name="Group 201">
      <g id="Group_200" data-name="Group 200">
        <path id="Path_323" data-name="Path 323" d="M197.1,43.246a11.837,11.837,0,0,1,2.927,2.466c1.224-3.938,4.967-5.162,9.4-2.608,3.672,2.111,6.865,6.28,8.551,10.679a3.844,3.844,0,0,1,1.845.585,9.563,9.563,0,0,1,4.329,7.5v.177a5.353,5.353,0,0,1,2.235.745,12.281,12.281,0,0,1,5.535,9.6c0,3.53-2.484,4.967-5.535,3.193L197.118,58.68A14.771,14.771,0,0,1,190.43,47.1C190.412,42.838,193.41,41.118,197.1,43.246Z" transform="translate(-182.376 -41.75)" fill="url(#linear-gradient-17)"/>
        <path id="Path_324" data-name="Path 324" d="M197.108,43.245a9.942,9.942,0,0,1,1.756,1.3l3.264-1.9h0c1.792-1.26,4.4-1.206,7.291.461,3.672,2.111,6.865,6.28,8.551,10.679a3.844,3.844,0,0,1,1.845.585,9.563,9.563,0,0,1,4.329,7.5v.177a5.353,5.353,0,0,1,2.235.745,12.281,12.281,0,0,1,5.535,9.6,3.881,3.881,0,0,1-1.6,3.566h0l-.018.018h0l-8.018,4.648L220.524,72.2,197.108,58.679a14.772,14.772,0,0,1-6.688-11.584C190.42,42.837,193.418,41.116,197.108,43.245Z" transform="translate(-182.384 -41.749)" fill="url(#radial-gradient-2)"/>
        <path id="Path_325" data-name="Path 325" d="M186.92,47.51l8.125-4.719h0c1.206-.727,2.892-.639,4.754.443a9.941,9.941,0,0,1,1.756,1.3l3.264-1.9h0c1.792-1.26,4.4-1.206,7.291.461,3.672,2.111,6.865,6.28,8.551,10.679a3.844,3.844,0,0,1,1.845.585,9.563,9.563,0,0,1,4.329,7.5v.177a5.353,5.353,0,0,1,2.235.745,12.281,12.281,0,0,1,5.535,9.6,3.881,3.881,0,0,1-1.6,3.566h0l-.018.018h0l-8.018,4.648-1.756-8.426L199.8,58.669a14.934,14.934,0,0,1-6.369-9.083Z" transform="translate(-185.093 -41.756)" fill="url(#linear-gradient-18)"/>
        <path id="Path_326" data-name="Path 326" d="M192.56,45.876a11.838,11.838,0,0,1,2.927,2.466c1.224-3.938,4.967-5.162,9.4-2.608,3.672,2.111,6.865,6.28,8.551,10.679a3.844,3.844,0,0,1,1.845.585,9.563,9.563,0,0,1,4.328,7.5v.177a5.354,5.354,0,0,1,2.235.745,12.281,12.281,0,0,1,5.535,9.6c0,3.53-2.484,4.967-5.535,3.193L192.578,61.31a14.772,14.772,0,0,1-6.688-11.584C185.89,45.468,188.87,43.748,192.56,45.876Z" transform="translate(-185.89 -39.714)" fill="url(#linear-gradient-19)"/>
      </g>
    </g>
  </g>
</svg>
