<svg xmlns="http://www.w3.org/2000/svg" width="213.801" height="124.717" viewBox="0 0 213.801 124.717">
  <g id="Icon_ionic-ios-menu" data-name="Icon ionic-ios-menu" transform="translate(-4.5 -10.125)">
    <path id="Path_616" data-name="Path 616" d="M209.392,27.942H13.408A8.935,8.935,0,0,1,4.5,19.033h0a8.935,8.935,0,0,1,8.908-8.908H209.392a8.935,8.935,0,0,1,8.908,8.908h0A8.935,8.935,0,0,1,209.392,27.942Z" fill="#fff"/>
    <path id="Path_617" data-name="Path 617" d="M209.392,34.692H13.408A8.935,8.935,0,0,1,4.5,25.783h0a8.935,8.935,0,0,1,8.908-8.908H209.392a8.935,8.935,0,0,1,8.908,8.908h0A8.935,8.935,0,0,1,209.392,34.692Z" transform="translate(0 46.7)" fill="#fff"/>
    <path id="Path_618" data-name="Path 618" d="M209.392,41.442H13.408A8.935,8.935,0,0,1,4.5,32.533h0a8.935,8.935,0,0,1,8.908-8.908H209.392a8.935,8.935,0,0,1,8.908,8.908h0A8.935,8.935,0,0,1,209.392,41.442Z" transform="translate(0 93.4)" fill="#fff"/>
  </g>
</svg>
