<svg xmlns="http://www.w3.org/2000/svg" xmlns:xlink="http://www.w3.org/1999/xlink" width="154.283" height="191.001" viewBox="0 0 154.283 191.001">
  <defs>
    <filter id="Path_277" x="27.121" y="0" width="102.159" height="122.383" filterUnits="userSpaceOnUse">
      <feOffset dy="7" input="SourceAlpha"/>
      <feGaussianBlur stdDeviation="3.5" result="blur"/>
      <feFlood flood-opacity="0.161"/>
      <feComposite operator="in" in2="blur"/>
      <feComposite in="SourceGraphic"/>
    </filter>
    <filter id="Union_3" x="14.461" y="104.39" width="126.259" height="73.31" filterUnits="userSpaceOnUse">
      <feOffset dy="7" input="SourceAlpha"/>
      <feGaussianBlur stdDeviation="3.5" result="blur-2"/>
      <feFlood flood-opacity="0.161"/>
      <feComposite operator="in" in2="blur-2"/>
      <feComposite in="SourceGraphic"/>
    </filter>
    <filter id="Union_5" x="0" y="137.53" width="154.283" height="53.472" filterUnits="userSpaceOnUse">
      <feOffset dy="7" input="SourceAlpha"/>
      <feGaussianBlur stdDeviation="3.5" result="blur-3"/>
      <feFlood flood-opacity="0.161"/>
      <feComposite operator="in" in2="blur-3"/>
      <feComposite in="SourceGraphic"/>
    </filter>
  </defs>
  <g id="Group_179" data-name="Group 179" transform="translate(-922.422 84.505)">
    <g transform="matrix(1, 0, 0, 1, 922.42, -84.5)" filter="url(#Path_277)">
      <path id="Path_277-2" data-name="Path 277" d="M952.1,3.435l3.081-.019-2.462,6.74s3.018.273,3.062.194c4.466-12.255,8.141-25.895,8.141-25.895l2.627-.006a47.717,47.717,0,0,1-1.563,5.975l2.907.025c6.057-22.337,8.087-44.887,7.849-44.8a13.337,13.337,0,0,0,1.81.07s-.27,3.656-.753,7.074c0,0,3.049.067,3.049-.006,1.34-11.62,1.42-21.155,1.42-21.155l.842-.01a210.192,210.192,0,0,0,1.512,21.143c.063.086,3.062-.01,3.062-.01-.445-3.431-.75-7.064-.75-7.064A13.982,13.982,0,0,0,987.7-54.4c-.184-.086,1.963,22.454,8.179,44.737l3-.054a45.623,45.623,0,0,1-1.69-5.956l2.694-.006s3.742,13.592,8.294,25.806c.054.079,3.052-.206,3.052-.206L1008.75,3.2l3.072-.01,7.531,16.9,3.265-.1c-9.113-17.877-12.35-30.014-12.35-30.014l-2.916.006,1.96,5.73a19.521,19.521,0,0,1-2.935-.111c-3.841-11.146-6.972-25.2-6.972-25.2l-2.754.006,1.445,6.22-2.554.089c-4.088-16.594-5.476-37.247-5.476-37.247l-2.8-.025.263,3.84a16.109,16.109,0,0,1-1.918.013c-.657-6.105-.692-24.3-.692-24.3l-2.935.016L982-74.226l-.759.006-.028-6.76h-2.922s.156,18.185-.435,24.306a16.5,16.5,0,0,1-1.982,0l.279-3.837-2.862.051s-1.15,20.66-5.139,37.289c-.07,0-2.535-.064-2.535-.064l1.4-6.242-2.805.016S961.2-15.367,957.444-4.195a19.756,19.756,0,0,1-2.9.121l1.893-5.743-2.913.016S950.339,2.355,941.46,20.321l3.243.057Zm58-5.076.7,2.176-2.751-.1-.645-2.077ZM998.612-20.63l.635,2.179-2.764-.1-.584-2.071Zm-33.439.127,2.634-.006-.591,2.071-2.713.13ZM953.737-1.422l2.776-.016L955.884.649l-2.827.124Z" transform="translate(-903.84 84.5)" fill="#fff"/>
    </g>
    <path id="Union_4" data-name="Union 4" d="M0,63.358c-.029-10.543.269-8.386.269-8.386H4.8s-.016-3.1-.026-4.091c.01-1,.153-1.509,1.779-1.509,1.569-.013,11.87-.051,11.87-.051l.007,0c-.01-1.69-.023-4.132-.029-4.964,0-1.309,2.315-5.743,5.939-5.743,0,0,.582-8.364.724-9.561.169-1.19-.3-3.647-.3-5.409-.01-1.779.991-3.932,1.423-5.114.473-1.207.3-4.73.3-6.614s.873-3.368,1.566-3.685c.772-.3,1.931-1.032,1.922-1.763s-1.331-1-1.334-3.068S29.2.022,30.988,0c1.709,0,2.335,2.23,2.335,3.234.009,1.032-.432,2.226-.432,2.76,0,.623,1.337.88,2.811.88a2.353,2.353,0,0,1,2.646,1.954c.159,1.14.889,1.3,1.489,2.3.54,1.026.267,2.382-.578,3.761-.886,1.553-.844,4.856-.934,8.046-.054,2.133.076,2.128-1.7,2.126h-.388c-.46,0-1.178.006-1.169,1.149,0,1.239.153,11.928.153,11.928l2.995.426c3.6-.018,5.972,4.4,5.982,5.7,0,.826.006,3.278.009,4.971l.007,0s10.248-.048,11.874-.048c1.648-.013,1.753.476,1.753,1.477s.013,4.076.013,4.076l4.535-.013s.286-2.151.325,8.392c.048,10.524-13.1,15.279-15.739,15.286s-14.39.063-14.39.063l-.007-2.468s12.2-.041,14.383-.054c2.211-.013,13.126-5.123,13.1-13.207-.013-3.034-.018-4.533-.028-5.19H57.905s0,2.207.026,4.507c0,2.379-4.051,11.48-12.732,11.5l-12.75.066a4.07,4.07,0,0,1,.7-2.932c.093-.08-.085-3.986-.022-6.308.261-8.345,7.309-13.37,7.309-13.37l.1-.048-.1,0-.038-7.15-18.169.073.019,7.144h-.1l.1.045S29.292,56.052,29.6,64.39c.127,2.315-.025,6.239.035,6.318a3.954,3.954,0,0,1,.744,2.91s-4.079.019-12.757.048C8.988,73.7,4.839,64.654,4.824,62.252c-.007-2.293-.013-4.488-.013-4.488l-2.106.01c0,.648,0,2.147.007,5.193.048,8.074,10.981,13.106,13.229,13.087,2.148,0,14.336-.048,14.336-.048v2.465s-11.727.041-14.323.063C13.256,78.535.053,73.9,0,63.358Zm9.853,3.884s1.163,3.958,8.386,4.117c1.732,0,7.878-.032,7.878-.032L22,67.122Zm26.838,4.044s6.131-.01,7.941-.038c7.138-.213,8.329-4.177,8.329-4.177l-12.172-.035ZM18.606,60.664l8.716,8.593s-.019-6.045-.019-6.162c-1.855-10.26-8.725-10.959-8.725-10.959Zm16.889,2.4c-.066.1.013,6.14.013,6.14l8.63-8.637-.051-8.551S37.217,52.786,35.495,63.069ZM7.168,60.56s.013.848.019,1.994a2.149,2.149,0,0,0,1.88,2.237c1.042-.016,10.276-.048,10.276-.048l-4.232-4.224Zm40.44-.166L43.4,64.647s9.24-.038,10.295-.044a2.172,2.172,0,0,0,1.877-2.227v-2ZM6.9,57.02A1.584,1.584,0,0,0,8.62,58.79l4.568-.018L7.136,52.641S6.9,56.141,6.9,57.02Zm42.618,1.6s3.253-.013,4.578-.029a1.637,1.637,0,0,0,1.747-1.776c0-.876-.3-4.37-.3-4.37ZM16.23,58.294l-.022-6.619L8.9,51.589Zm30.192-6.734.02,6.617,7.34-6.76ZM25.4,40.636a.494.494,0,0,0,.457.47l11.877-.041a.526.526,0,0,0,.493-.477.486.486,0,0,0-.508-.419l-11.861.051h-.012A.447.447,0,0,0,25.4,40.636Zm1.452-10.692c-.734.152-.722,2.233-.892,2.77-.121.622.018,4.275-.1,5.737l1.728-.124a12.862,12.862,0,0,0-.3-3.853c-.4-1.711.227-4.536-.374-4.536A.23.23,0,0,0,26.852,29.945Zm.409,24.763-.035-8.8,3.663,8.173-.108,9.695C29.864,56.773,27.262,54.708,27.262,54.708Zm4.523-.629,3.631-8.208.032,8.808S32.8,56.76,31.995,63.767Z" transform="translate(967.734 -28.53)" fill="#fff"/>
    <g transform="matrix(1, 0, 0, 1, 922.42, -84.5)" filter="url(#Union_3)">
      <path id="Union_3-2" data-name="Union 3" d="M53.4,34.231l3.557-3.93L62.2,34.43l.535,17.153-4.41-3.066L53.465,52.31ZM47.113,48.566l-4.358,3.091.425-17.145,5.213-4.177,3.539,3.909L52,52.31Zm-9.831-.654-4.187,2.7,1.246-16.681,4.825-3.789,2.642,4.37L41.482,51.2ZM63.549,34.427l2.66-4.4,4.822,3.75,1.4,16.69L68.264,47.79l-4.187,3.317ZM28.258,46.221l-4.4.678,3.01-14.524,4.816-2.858,1.573,4.147-1.218,16.28ZM72.082,33.5l1.573-4.15L78.5,32.167l3.136,14.5-4.385-.648L73.5,49.763ZM19.621,43.643l-3.689.013,4.545-13.028,5.277-2.675.024,4.241-3,14.048ZM79.612,31.962,79.6,27.745l5.3,2.632,4.624,12.985-3.693.015L82.7,46ZM13.251,39.71l-3.329-.452,7.055-12.565L21.106,25.6l.445,1.955-1.716,2.437L15.224,42.073Zm72.287-9.986L83.748,27.3l.409-1.961L88.4,26.395,95.444,38.91l-3.3.482-1.986,2.394ZM8.389,34.179,4.425,32.661l9.192-10.347,4.4-.024L10.356,35.947ZM87.22,22.028l4.431-.022,9.309,10.259-3.94,1.57-2.03,1.771ZM4.194,27.855l-2.84-1.1,10.27-8.823,3.766.836L5.507,29.623Zm85.7-9.379,3.739-.87,10.384,8.741-2.868,1.123-1.328,1.771ZM0,19.991l10.915-6.044L13.59,15.5l-2.41,1.1-8.569,7.07Zm94.015-3.722L91.62,15.2l2.633-1.6,11.006,5.961-2.614,3.711ZM.571,12.679l9.938-3.118,2.632,1.986-2.431.629L2.184,16.445Zm93.9-.84-2.431-.616,2.651-2,9.882,3.041-1.539,3.072.025.7ZM2.528,6.513l8.6-1.53,2.016,2.8-2.895-.409L3.686,9.824Zm92.348.52-2.865.424,1.955-2.807,8.593,1.472-1.059,3.3Zm-82.437-3.4-5.252.25L7.6.806l4.834-.48,2.211,4.633ZM92.675,0l4.853.449.434,3.072L92.69,3.3,90.448,4.666Z" transform="translate(24.96 107.89)" fill="#fff"/>
    </g>
    <g transform="matrix(1, 0, 0, 1, 922.42, -84.5)" filter="url(#Union_5)">
      <path id="Union_5-2" data-name="Union 5" d="M66.236,32.452l.06-4.892c.015-.927-.334-1.394-1.026-1.4a1.635,1.635,0,0,0-1.185.6,1.715,1.715,0,0,0-.588,1.175l-.05,4.492L61.963,32.4l.088-6.264a1.27,1.27,0,0,0-.543-1.131l1.658.015a1.307,1.307,0,0,1,.286.41,2.033,2.033,0,0,1,.069.648v.146a2.113,2.113,0,0,1,2.046-1.267,1.954,1.954,0,0,1,2.211,2.226l-.06,5.286Zm2.792-5.162a2.033,2.033,0,0,1,.731-1.715,3.359,3.359,0,0,1,2.1-.677,3.538,3.538,0,0,1,2.014.486,2.04,2.04,0,0,1,.966,1.747l.14,5.174-1.464.038-.149-5.118c-.016-.813-.508-1.21-1.481-1.182-.943.029-1.407.448-1.378,1.261l.032,1.125a2.167,2.167,0,0,1,.375-.468.782.782,0,0,1,.565-.184l1.09,0L72.6,29,71.432,29a.784.784,0,0,0-.59.336.992.992,0,0,0-.273.664l.076,2.424-1.48.041ZM58.471,32.245l.33-7.384,1.47.066L60,31.166l.84.042-.579,1.119Zm17.895-9.272c-.01-.222-.239-.47-.7-.769a.735.735,0,0,1-.347-.515,1.183,1.183,0,0,1,.727-1.061,3,3,0,0,1,1.335-.4,4.933,4.933,0,0,1,1.121.054,2.889,2.889,0,0,1,.989.347l.094,1.442a2.449,2.449,0,0,0-1.874-.756,2.081,2.081,0,0,0-.626.115.263.263,0,0,0-.206.251c0,.076.152.2.46.381a.854.854,0,0,1,.49.667l.5,8.215.858-.057-.467,1.179-1.791.107ZM53.816,32.02a3.126,3.126,0,0,1-2.278-.994,2.027,2.027,0,0,1-.441-1.512L51.145,29a1.524,1.524,0,0,1,.4-.921,1.343,1.343,0,0,1,.912-.432,1.746,1.746,0,0,1-.83-.508,1.208,1.208,0,0,1-.264-.921,1.674,1.674,0,0,1,.727-1.293,2.238,2.238,0,0,1,1.506-.369l.56.035.54,1.2-.88-.073c-.616-.048-.934.159-.981.619a.547.547,0,0,0,.308.585,1.784,1.784,0,0,0,.422.152,2.1,2.1,0,0,0,.468.064l.877.032L54.8,28.364l-.844-.063a1.52,1.52,0,0,0-.95.172.776.776,0,0,0-.394.641l-.028.439c-.064.813.378,1.248,1.315,1.327.962.073,1.477-.292,1.534-1.093l.4-5.06,1.477.118-.406,5.133a2.1,2.1,0,0,1-.95,1.626,3.125,3.125,0,0,1-1.714.433Q54.036,32.038,53.816,32.02Zm26.143-1.893-.547-5.492,1.474-.152.509,5.158a1.071,1.071,0,0,0,1.334,1.07,1.7,1.7,0,0,0,.562-.162,1.594,1.594,0,0,0,.482-.33,1.2,1.2,0,0,0,.3-.476,1.159,1.159,0,0,0,.08-.56l-.493-4.971,1.477-.137.591,6.039a2.961,2.961,0,0,0,.169.785c.066.092.127.191.194.27a.775.775,0,0,0,.235.209l-1.7.166a1.442,1.442,0,0,1-.311-.747,2.411,2.411,0,0,1-1.2.9,3.03,3.03,0,0,1-.712.143,4.512,4.512,0,0,1-.453.024A1.756,1.756,0,0,1,79.958,30.127ZM48.073,31.378l.489-3.7a2.455,2.455,0,0,1-.642.2l-.191.025c-.082.013-.2.022-.336.029l-.152.01a1.859,1.859,0,0,0-.244.015,1.987,1.987,0,0,0-.94.229.923.923,0,0,0-.468.664.761.761,0,0,0,.286.711,1.839,1.839,0,0,0,.928.362,3.522,3.522,0,0,0,.978-.015l-.737,1.334c-.134-.013-.267-.035-.394-.048s-.254-.035-.375-.054a2.959,2.959,0,0,1-1.715-.727,2,2,0,0,1-.493-1.735c.152-1.191.988-1.8,2.481-1.858.314-.01.768-.035,1.359-.1.509-.114.794-.334.833-.664.082-.648-.264-1.016-1.061-1.124-.855-.118-1.334.2-1.427.947l-1.62-.213a2.15,2.15,0,0,1,.327-.909,2.116,2.116,0,0,1,.7-.632,2.8,2.8,0,0,1,.969-.331,4.408,4.408,0,0,1,1.159-.006,3.5,3.5,0,0,1,1.795.721,1.89,1.89,0,0,1,.664,1.747l-.708,5.311Zm38.47-9.367c-.035-.219-.28-.457-.763-.715a.714.714,0,0,1-.378-.483c-.069-.419.156-.784.642-1.121a3.2,3.2,0,0,1,1.29-.5,5.105,5.105,0,0,1,1.124-.026,2.829,2.829,0,0,1,1.017.267l.2,1.429a2.443,2.443,0,0,0-1.928-.607,2.36,2.36,0,0,0-.623.159.256.256,0,0,0-.177.27c.01.076.172.19.5.343a.847.847,0,0,1,.53.629l1.16,8.147.839-.12-.369,1.21-1.775.248ZM40.967,30.3l.944-4.921c.165-.87-.115-1.378-.823-1.509a.962.962,0,0,0-1.124.461,1.251,1.251,0,0,0-.159.435L38.3,24.476a2.019,2.019,0,0,1,1.1-1.5,2.862,2.862,0,0,1,1.887-.235,2.736,2.736,0,0,1,1.718.915,2.148,2.148,0,0,1,.381,1.858l-.972,5.063Zm50.645-.219A1.981,1.981,0,0,1,90.59,28.6c-.222-1.179.375-2.03,1.779-2.547.3-.1.712-.273,1.255-.515.455-.273.646-.575.582-.9-.114-.638-.582-.886-1.36-.734-.854.162-1.2.613-1.067,1.347l-1.6.3a2.077,2.077,0,0,1,.042-.962,1.921,1.921,0,0,1,.457-.819,2.7,2.7,0,0,1,.807-.62,4.019,4.019,0,0,1,1.1-.368,3.357,3.357,0,0,1,1.931.124,1.874,1.874,0,0,1,1.175,1.448l1,5.267L95.24,29.9l-.693-3.675a2.221,2.221,0,0,1-.553.391l-.165.095c-.082.035-.191.083-.314.13l-.137.057a1.451,1.451,0,0,0-.238.092,1.989,1.989,0,0,0-.816.512.933.933,0,0,0-.232.775.77.77,0,0,0,.5.585,1.821,1.821,0,0,0,1.01.054,3.9,3.9,0,0,0,.9-.321l-.269,1.5c-.137.022-.264.051-.391.07s-.26.057-.375.073a4,4,0,0,1-.768.08A2.408,2.408,0,0,1,91.612,30.079ZM33.156,28.618A3.079,3.079,0,0,1,31.1,27.233a2.026,2.026,0,0,1-.162-1.563l.13-.5a1.626,1.626,0,0,1,.56-.839,1.419,1.419,0,0,1,.984-.258,1.838,1.838,0,0,1-.727-.644,1.29,1.29,0,0,1-.085-.963,1.649,1.649,0,0,1,.95-1.134,2.2,2.2,0,0,1,1.537-.1l.556.149.308,1.267-.851-.232c-.6-.155-.969-.006-1.08.445a.524.524,0,0,0,.2.62,1.622,1.622,0,0,0,.388.228,1.893,1.893,0,0,0,.451.149l.845.184-.317,1.16-.81-.216a1.523,1.523,0,0,0-.973,0,.776.776,0,0,0-.5.559l-.118.426c-.2.778.152,1.3,1.061,1.544.931.244,1.5-.022,1.7-.8l1.322-4.9,1.414.385L36.571,27.17A2.057,2.057,0,0,1,35.338,28.6a2.589,2.589,0,0,1-1.019.192A4.5,4.5,0,0,1,33.156,28.618Zm65.429-.187a1.99,1.99,0,0,1-.918-1.28l-.134-.493a1.474,1.474,0,0,1,.064-1,1.338,1.338,0,0,1,.718-.715,1.828,1.828,0,0,1-.953-.2,1.276,1.276,0,0,1-.562-.784,1.675,1.675,0,0,1,.257-1.461,2.286,2.286,0,0,1,1.284-.858l.556-.152.908.94-.861.239c-.59.155-.839.46-.714.914a.542.542,0,0,0,.492.442,2.043,2.043,0,0,0,.448,0,1.455,1.455,0,0,0,.451-.1l.839-.26.318,1.159-.826.216a1.578,1.578,0,0,0-.839.489.768.768,0,0,0-.155.734l.117.428c.21.785.766,1.048,1.674.8.937-.251,1.289-.763,1.086-1.544l-1.324-4.9,1.439-.384,1.327,4.971a2.009,2.009,0,0,1-.336,1.849,3.362,3.362,0,0,1-1.887,1.112,4.462,4.462,0,0,1-1.159.169A2.5,2.5,0,0,1,98.585,28.431Zm12.422-1.08-.95.425-.528-1.187,2.3-1.012,1.129,2.535L111.6,28.7ZM27.35,26.776l1.7-4.59c.317-.867.152-1.419-.505-1.665a1.626,1.626,0,0,0-1.3.159,1.716,1.716,0,0,0-.95.918l-1.56,4.209-1.391-.515,2.182-5.877a1.264,1.264,0,0,0-.127-1.249l1.562.582a1.373,1.373,0,0,1,.124.479,1.688,1.688,0,0,1-.152.632L26.886,20a2.116,2.116,0,0,1,2.357-.508,2.239,2.239,0,0,1,1.423,1.2,2.237,2.237,0,0,1-.095,1.636l-1.839,4.956Zm78.643-.229a1.971,1.971,0,0,1-1.252-1.3c-.423-1.121.019-2.065,1.319-2.805.267-.162.66-.394,1.14-.724.4-.346.537-.68.419-.981-.219-.613-.7-.772-1.461-.493-.81.306-1.083.8-.822,1.512l-1.515.565a2.084,2.084,0,0,1-.13-.95,1.884,1.884,0,0,1,.311-.889,2.768,2.768,0,0,1,.689-.744,3.977,3.977,0,0,1,1.039-.552,2.161,2.161,0,0,1,.317-.105c.131-.032.258-.063.4-.085l.623-.121a.361.361,0,0,0,.3-.27.882.882,0,0,0-.067-.505l1.525-.578a1.054,1.054,0,0,1-.007.937,1.874,1.874,0,0,1-.649.714,1.871,1.871,0,0,1,.877,1.036l1.877,5.016-1.388.518-1.3-3.494a2.443,2.443,0,0,1-.483.473l-.152.117a1.9,1.9,0,0,1-.283.185l-.124.079a1.322,1.322,0,0,0-.21.13,2.172,2.172,0,0,0-.734.639.924.924,0,0,0-.082.806.752.752,0,0,0,.588.5,1.868,1.868,0,0,0,.982-.114,4.073,4.073,0,0,0,.854-.483l-.015,1.531c-.124.041-.255.1-.365.137s-.255.085-.362.133a3.565,3.565,0,0,1-1.229.25A2.179,2.179,0,0,1,105.992,26.547ZM18.948,23.272a3.247,3.247,0,0,1-1.537-1.417,2.291,2.291,0,0,1,.146-2.046l1.391.7a1.464,1.464,0,0,0-.146.975,1.146,1.146,0,0,0,.67.766c.858.432,1.677-.124,2.484-1.687.788-1.563.762-2.564-.095-3a1.125,1.125,0,0,0-.95-.118,1.5,1.5,0,0,0-.68.546l-1.375-.7a2.256,2.256,0,0,1,1.585-1.121,3.159,3.159,0,0,1,1.95.371q2.587,1.34.873,4.7A4.578,4.578,0,0,1,21.3,23.5a2.2,2.2,0,0,1-.877.18A3.215,3.215,0,0,1,18.948,23.272Zm28.36-.141.211-1.928,1.467.149L48.9,22.1l3.028.315L51.8,23.6Zm66.044.429a2.027,2.027,0,0,1-1.5-1.2.9.9,0,0,1-.127-.267l1.423-.744.127.289a.944.944,0,0,0,.744.613,1.561,1.561,0,0,0,1.042-.2q1.177-.614.711-1.5a1.021,1.021,0,0,0-.759-.54,3.2,3.2,0,0,0-1.4.2,3.455,3.455,0,0,1-1.662.2,1.636,1.636,0,0,1-1.356-.877,1.834,1.834,0,0,1,0-1.833,3.723,3.723,0,0,1,3.459-1.706,2.05,2.05,0,0,1,1.452,1.15l-1.318.68a1.022,1.022,0,0,0-.7-.565,1.4,1.4,0,0,0-.931.155,1.46,1.46,0,0,0-.635.594.765.765,0,0,0-.013.721.8.8,0,0,0,.781.384,4.69,4.69,0,0,0,.569-.082c.229-.06.505-.13.813-.222a3.371,3.371,0,0,1,1.645-.155A1.893,1.893,0,0,1,117,19.705q1.077,2.063-1.426,3.367a4.028,4.028,0,0,1-1.817.522A2.387,2.387,0,0,1,113.352,23.561Zm-16.866-3.29,3.439-1.088L99.64,18.3l1.412-.448.644,2.027-4.844,1.534Zm-82.754-.13,2.89-4.091q.762-1.1-.127-1.718a.972.972,0,0,0-1.216-.042,1.131,1.131,0,0,0-.321.337L13.7,13.743a2,2,0,0,1,1.617-.918,2.789,2.789,0,0,1,1.813.553,2.67,2.67,0,0,1,1.188,1.534,2.11,2.11,0,0,1-.4,1.861l-2.96,4.219Zm104.985-1.029-3.284-4.437,1.182-.883,3.081,4.161a1.068,1.068,0,0,0,1.693.229,1.948,1.948,0,0,0,.41-.426,1.69,1.69,0,0,0,.235-.534,1.462,1.462,0,0,0,.026-.562,1.306,1.306,0,0,0-.236-.521l-2.969-4.006,1.188-.883,3.622,4.882a2.872,2.872,0,0,0,.543.581c.105.048.2.093.3.13a.637.637,0,0,0,.311.06L123.45,17.92a1.466,1.466,0,0,1-.66-.473,2.367,2.367,0,0,1-.559,1.385,2.791,2.791,0,0,1-.531.476,2.7,2.7,0,0,1-1.559.635A1.763,1.763,0,0,1,118.717,19.111ZM20.5,15.12l.472-1.093,4.664,2.034-.477,1.1Zm-12.553.4,3.619-3.468c.228-.229.324-.388.241-.461l-.134-.035-.114.035-.067.019-5.542,1.83-.963-1L9.507,8.114a1.279,1.279,0,0,0,.42-1.182l1.15,1.2a1.2,1.2,0,0,1-.089.483,1.442,1.442,0,0,1-.4.5L9.4,10.271A18.04,18.04,0,0,1,7.96,11.415l-.225.184c-.092.057-.191.114-.3.184l.594-.257c.066-.029.143-.07.251-.114s.225-.105.349-.159L8.8,11.2l.191-.082,1.706-.591a1.6,1.6,0,0,1,.622-.107,1.406,1.406,0,0,1,.5.13L11.1,9.807l.826-.794L14.3,11.481l-.822.791-.6-.61a1.432,1.432,0,0,1,.111.753,1.148,1.148,0,0,1-.331.638L8.98,16.583Zm116.989-6c-.673-.593-1.246-.619-1.735-.079a.971.971,0,0,0-.177,1.2,1.41,1.41,0,0,0,.3.362L122.3,12.152a2.061,2.061,0,0,1-.721-1.718,2.847,2.847,0,0,1,.762-1.738,2.731,2.731,0,0,1,1.674-1,2.147,2.147,0,0,1,1.795.626l3.837,3.446-.991,1.1ZM1.9,7.9a2.838,2.838,0,0,1-.371-1.261A2.152,2.152,0,0,1,1.7,5.748a.881.881,0,0,1-.858.029L0,4.252a1.451,1.451,0,0,0,1.455-.057L6.794,1.278l.705,1.3L3.116,4.966a1.236,1.236,0,0,0-.4.381,1.681,1.681,0,0,0-.216.524,1.829,1.829,0,0,0-.013.585,1.507,1.507,0,0,0,.169.553,1.071,1.071,0,0,0,1.639.5L8.844,5.026l.7,1.3L4.7,8.975a2.168,2.168,0,0,1-1.023.293C2.993,9.268,2.4,8.813,1.9,7.9Zm127.389.556a1.8,1.8,0,0,1-.251-.156l.744-1.423.276.166a.945.945,0,0,0,.959.085,1.5,1.5,0,0,0,.737-.759c.416-.778.334-1.327-.251-1.642a1.031,1.031,0,0,0-.94-.013,3.176,3.176,0,0,0-1.035.959,3.5,3.5,0,0,1-1.255,1.109,1.652,1.652,0,0,1-1.613.041,1.83,1.83,0,0,1-1.039-1.512,3.2,3.2,0,0,1,.413-1.849A3.32,3.32,0,0,1,127.5,1.942a2.052,2.052,0,0,1,1.855.133l-.705,1.309a1.017,1.017,0,0,0-.9-.073,1.355,1.355,0,0,0-.68.654,1.376,1.376,0,0,0-.177.852.755.755,0,0,0,.39.6.816.816,0,0,0,.867-.13,3.573,3.573,0,0,0,.413-.394c.162-.175.343-.385.556-.639a3.162,3.162,0,0,1,1.271-1.064,1.881,1.881,0,0,1,1.642.14c1.363.73,1.617,1.925.734,3.589a3.612,3.612,0,0,1-1.553,1.655,1.872,1.872,0,0,1-.806.183A2.372,2.372,0,0,1,129.292,8.454Zm-5.57-3.364,1.24-3.386-.872-.311L124.6,0l2,.73L124.847,5.5Z" transform="translate(10.5 141.03)" fill="#fff"/>
    </g>
  </g>
</svg>
